<svg xmlns="http://www.w3.org/2000/svg" viewBox="0 0 118 123" width="100%" height="100%">
  <path fill="#FFF" fill-rule="evenodd" d="M37.6250407,117.218862 L37.6250407,26.4325203 C37.6250407,23.6048224 39.9173427,21.3125203 42.7450407,21.3125203 L56.2734959,21.3125203 L56.2734959,2.56 C56.2734959,1.14615104 57.419647,1.14789826e-15 58.8334959,0 L59.041626,0 C60.455475,-2.5971984e-16 61.601626,1.14615104 61.601626,2.56 L61.601626,21.3125203 L75.1300813,21.3125203 C77.9577792,21.3125203 80.2500813,23.6048224 80.2500813,26.4325203 L80.2500813,117.218862 L85.5782114,117.218862 L85.5782114,47.9531707 L104.060465,57.1942977 C105.79504,58.0615848 106.890732,59.834452 106.890732,61.7737649 L106.890732,117.218862 L114.882927,117.218862 C116.354249,117.218862 117.546992,118.411604 117.546992,119.882927 C117.546992,121.354249 116.354249,122.546992 114.882927,122.546992 L2.99219512,122.546992 C1.52087263,122.546992 0.328130081,121.354249 0.328130081,119.882927 C0.328130081,118.411604 1.52087263,117.218862 2.99219512,117.218862 L10.9843902,117.218862 L10.9843902,42.4169106 C10.9843902,39.5892126 13.2766923,37.2969106 16.1043902,37.2969106 L27.1769106,37.2969106 C30.0046085,37.2969106 32.2969106,39.5892126 32.2969106,42.4169106 L32.2969106,117.218862 L37.6250407,117.218862 Z M45.5131707,31.9687805 C44.0993218,31.9687805 42.9531707,33.1149315 42.9531707,34.5287805 L42.9531707,45.3931707 C42.9531707,46.8070197 44.0993218,47.9531707 45.5131707,47.9531707 L72.3619512,47.9531707 C73.7758002,47.9531707 74.9219512,46.8070197 74.9219512,45.3931707 L74.9219512,34.5287805 C74.9219512,33.1149315 73.7758002,31.9687805 72.3619512,31.9687805 L45.5131707,31.9687805 Z M18.8725203,47.9531707 C17.4586714,47.9531707 16.3125203,49.0993218 16.3125203,50.5131707 L16.3125203,56.0494309 C16.3125203,57.4632799 17.4586714,58.6094309 18.8725203,58.6094309 L24.4087805,58.6094309 C25.8226294,58.6094309 26.9687805,57.4632799 26.9687805,56.0494309 L26.9687805,50.5131707 C26.9687805,49.0993218 25.8226294,47.9531707 24.4087805,47.9531707 L18.8725203,47.9531707 Z M18.8725203,63.937561 C17.4586714,63.937561 16.3125203,65.083712 16.3125203,66.497561 L16.3125203,72.0338211 C16.3125203,73.4476701 17.4586714,74.5938211 18.8725203,74.5938211 L24.4087805,74.5938211 C25.8226294,74.5938211 26.9687805,73.4476701 26.9687805,72.0338211 L26.9687805,66.497561 C26.9687805,65.083712 25.8226294,63.937561 24.4087805,63.937561 L18.8725203,63.937561 Z M18.8725203,79.9219512 C17.4586714,79.9219512 16.3125203,81.0681023 16.3125203,82.4819512 L16.3125203,88.0182114 C16.3125203,89.4320603 17.4586714,90.5782114 18.8725203,90.5782114 L24.4087805,90.5782114 C25.8226294,90.5782114 26.9687805,89.4320603 26.9687805,88.0182114 L26.9687805,82.4819512 C26.9687805,81.0681023 25.8226294,79.9219512 24.4087805,79.9219512 L18.8725203,79.9219512 Z M93.4663415,79.9219512 C92.0524925,79.9219512 90.9063415,81.0681023 90.9063415,82.4819512 L90.9063415,88.0182114 C90.9063415,89.4320603 92.0524925,90.5782114 93.4663415,90.5782114 L99.0026016,90.5782114 C100.416451,90.5782114 101.562602,89.4320603 101.562602,88.0182114 L101.562602,82.4819512 C101.562602,81.0681023 100.416451,79.9219512 99.0026016,79.9219512 L93.4663415,79.9219512 Z M93.4663415,63.937561 C92.0524925,63.937561 90.9063415,65.083712 90.9063415,66.497561 L90.9063415,72.0338211 C90.9063415,73.4476701 92.0524925,74.5938211 93.4663415,74.5938211 L99.0026016,74.5938211 C100.416451,74.5938211 101.562602,73.4476701 101.562602,72.0338211 L101.562602,66.497561 C101.562602,65.083712 100.416451,63.937561 99.0026016,63.937561 L93.4663415,63.937561 Z M45.5131707,53.2813008 C44.0993218,53.2813008 42.9531707,54.4274519 42.9531707,55.8413008 L42.9531707,66.7056911 C42.9531707,68.11954 44.0993218,69.2656911 45.5131707,69.2656911 L72.3619512,69.2656911 C73.7758002,69.2656911 74.9219512,68.11954 74.9219512,66.7056911 L74.9219512,55.8413008 C74.9219512,54.4274519 73.7758002,53.2813008 72.3619512,53.2813008 L45.5131707,53.2813008 Z M45.5131707,74.5938211 C44.0993218,74.5938211 42.9531707,75.7399722 42.9531707,77.1538211 L42.9531707,88.0182114 C42.9531707,89.4320603 44.0993218,90.5782114 45.5131707,90.5782114 L72.3619512,90.5782114 C73.7758002,90.5782114 74.9219512,89.4320603 74.9219512,88.0182114 L74.9219512,77.1538211 C74.9219512,75.7399722 73.7758002,74.5938211 72.3619512,74.5938211 L45.5131707,74.5938211 Z M18.8725203,95.9063415 C17.4586714,95.9063415 16.3125203,97.0524925 16.3125203,98.4663415 L16.3125203,104.002602 C16.3125203,105.416451 17.4586714,106.562602 18.8725203,106.562602 L24.4087805,106.562602 C25.8226294,106.562602 26.9687805,105.416451 26.9687805,104.002602 L26.9687805,98.4663415 C26.9687805,97.0524925 25.8226294,95.9063415 24.4087805,95.9063415 L18.8725203,95.9063415 Z M93.4663415,95.9063415 C92.0524925,95.9063415 90.9063415,97.0524925 90.9063415,98.4663415 L90.9063415,104.002602 C90.9063415,105.416451 92.0524925,106.562602 93.4663415,106.562602 L99.0026016,106.562602 C100.416451,106.562602 101.562602,105.416451 101.562602,104.002602 L101.562602,98.4663415 C101.562602,97.0524925 100.416451,95.9063415 99.0026016,95.9063415 L93.4663415,95.9063415 Z"/>
</svg>
