<svg id="meisterbundle" xmlns="http://www.w3.org/2000/svg" viewBox="0 0 159 79" width="100%" height="100%">
  <g fill="none" fill-rule="evenodd">
    <g transform="translate(79)">
      <path fill="#0AF" d="M49.9946511,2.6034815 C78.9905469,10.2887525 84.1459387,24.115758 77.3005456,49.3863923 C70.4551525,74.6570267 59.0012447,84.0817895 30.0053489,76.3965185 C1.00945312,68.7112475 -4.14593867,54.884242 2.69945442,29.6136077 C9.54484751,4.34297329 20.9987553,-5.08178953 49.9946511,2.6034815 Z"/>
      <path fill="#FFF" d="M30.6646538,41.6673223 L30.6646538,5.06173911 C30.6646538,3.15723337 32.2281038,1.61332641 34.1567173,1.61332641 C36.0853307,1.61332641 37.6487807,3.15723337 37.6487807,5.06173911 L37.6487807,45.115735 C37.6487807,47.0202407 36.0853307,48.5641477 34.1567173,48.5641477 L17.8305179,48.5641477 C15.9019045,48.5641477 14.3384544,47.0202407 14.3384544,45.115735 C14.3384544,43.2112292 15.9019045,41.6673223 17.8305179,41.6673223 L30.6646538,41.6673223 Z" transform="rotate(45 21.573 48.133)"/>
    </g>
    <path fill="#F7578C" d="M49.9946511,2.6034815 C78.9905469,10.2887525 84.1459387,24.115758 77.3005456,49.3863923 C70.4551525,74.6570267 59.0012447,84.0817895 30.0053489,76.3965185 C1.00945312,68.7112475 -4.14593867,54.884242 2.69945442,29.6136077 C9.54484751,4.34297329 20.9987553,-5.08178953 49.9946511,2.6034815 Z"/>
    <path fill="#FFF" d="M7.56082766,27.1698113 C4.10320269,19.7043843 4.04472438,12.3741273 8.46099815,7.95785349 C12.8772719,3.54157972 20.207529,3.60005804 27.672956,7.05768301 C35.138383,3.60005804 42.46864,3.54157972 46.8849138,7.95785349 C51.3011876,12.3741273 51.2427093,19.7043843 47.7850843,27.1698113 C51.2427093,34.6352383 51.3011876,41.9654954 46.8849138,46.3817691 C42.46864,50.7980429 35.138383,50.7395646 27.672956,47.2819396 C20.207529,50.7395646 12.8772719,50.7980429 8.46099815,46.3817691 C4.04472438,41.9654954 4.10320269,34.6352383 7.56082766,27.1698113 Z M11.1525701,21.0513914 C12.5361667,19.1165836 14.1360078,17.2254777 15.9323151,15.4291704 C17.7286224,13.6328631 19.6197282,12.0330221 21.554536,10.6494255 C17.5987212,9.55266855 14.211662,9.89197279 12.3033897,11.8002451 C10.3951174,13.7085173 10.0558132,17.0955766 11.152572,21.0513883 Z M44.1933418,33.2882313 C42.8097452,35.2230391 41.2099042,37.1141449 39.4135969,38.9104522 C37.6172896,40.7067595 35.7261837,42.3066006 33.7913759,43.6901972 C37.7471907,44.7869541 41.13425,44.4476499 43.0425222,42.5393776 C44.9507945,40.6311053 45.2900988,37.2440461 44.1933399,33.2882344 Z M11.1525721,33.288234 C10.0558132,37.2440459 10.3951174,40.6311053 12.3033897,42.5393776 C14.211662,44.4476499 17.5987214,44.7869541 21.5545332,43.6901952 C19.6197264,42.306599 17.7286215,40.7067587 15.9323151,38.9104522 C14.1360086,37.1141458 12.5361683,35.2230409 11.1525721,33.288234 Z M13.784012,27.1698113 C15.2996343,29.8025851 17.3304571,32.4815003 19.845862,34.9969053 C22.361267,37.5123102 25.0401822,39.543133 27.672956,41.0587553 C30.3057297,39.543133 32.984645,37.5123102 35.5000499,34.9969053 C38.0154549,32.4815003 40.0462776,29.8025851 41.5618999,27.1698113 C40.0462776,24.5370376 38.0154549,21.8581223 35.5000499,19.3427174 C32.984645,16.8273124 30.3057297,14.7964896 27.672956,13.2808674 C25.0401822,14.7964896 22.361267,16.8273124 19.845862,19.3427174 C17.3304571,21.8581223 15.2996343,24.5370376 13.784012,27.1698113 Z M33.7913787,10.6494275 C35.7261855,12.0330236 37.6172904,13.632864 39.4135969,15.4291704 C41.2099033,17.2254769 42.8097437,19.1165818 44.1933398,21.0513886 C45.2900988,17.0955768 44.9507946,13.7085174 43.0425222,11.8002451 C41.1342499,9.89197274 37.7471905,9.55266853 33.7913787,10.6494275 Z" transform="translate(12.5 12.344)"/>
    <g transform="translate(67 27.65)">
      <ellipse cx="12" cy="11.85" fill="#003A8C" rx="12" ry="11.85"/>
      <path fill="#FFF" d="M13.4,10.4675 L18.3,10.4675 C18.6865993,10.4675 19,10.7769832 19,11.15875 L19,12.54125 C19,12.9230168 18.6865993,13.2325 18.3,13.2325 L13.4,13.2325 L13.4,18.07125 C13.4,18.4530168 13.0865993,18.7625 12.7,18.7625 L11.3,18.7625 C10.9134007,18.7625 10.6,18.4530168 10.6,18.07125 L10.6,13.2325 L5.7,13.2325 C5.31340068,13.2325 5,12.9230168 5,12.54125 L5,11.15875 C5,10.7769832 5.31340068,10.4675 5.7,10.4675 L10.6,10.4675 L10.6,5.62875 C10.6,5.24698317 10.9134007,4.9375 11.3,4.9375 L12.7,4.9375 C13.0865993,4.9375 13.4,5.24698317 13.4,5.62875 L13.4,10.4675 Z"/>
    </g>
  </g>
</svg>
