<svg xmlns="http://www.w3.org/2000/svg" xmlns:xlink="http://www.w3.org/1999/xlink" viewBox="0 0 392 344" width="100%" height="100%">
  <defs>
    <linearGradient id="integrate-old-tools-a" x1="50%" x2="50%" y1="0%" y2="100%">
      <stop offset="0%" stop-color="#F2BC94"/>
      <stop offset="0%" stop-color="#E89D67"/>
      <stop offset="100%" stop-color="#A8603B"/>
    </linearGradient>
    <path id="integrate-old-tools-c" d="M14.3744343,4.73416667 L49.7505657,4.73416667 C55.0658639,4.73416667 59.375,9.02945255 59.375,14.3279562 L59.375,49.4587105 C59.375,54.7576189 55.065994,59.0525 49.7505657,59.0525 L14.3744343,59.0525 C9.05913606,59.0525 4.75,54.7572141 4.75,49.4587105 L4.75,14.3279562 C4.75,9.02904781 9.059006,4.73416667 14.3744343,4.73416667 Z"/>
    <filter id="integrate-old-tools-b" width="116.5%" height="118.4%" x="-8.2%" y="-4.6%" filterUnits="objectBoundingBox">
      <feOffset dy="3" in="SourceAlpha" result="shadowOffsetOuter1"/>
      <feGaussianBlur in="shadowOffsetOuter1" result="shadowBlurOuter1" stdDeviation="1"/>
      <feColorMatrix in="shadowBlurOuter1" values="0 0 0 0 0   0 0 0 0 0   0 0 0 0 0  0 0 0 0.3 0"/>
    </filter>
    <linearGradient id="integrate-old-tools-f" x1="50%" x2="50%" y1="0%" y2="101.828%">
      <stop offset="0%" stop-color="#ED3B28"/>
      <stop offset="2.567%" stop-color="#F95339"/>
      <stop offset="100%" stop-color="#E8371D"/>
    </linearGradient>
    <path id="integrate-old-tools-e" d="M13.1298109,4.23583333 C12.9200471,4.23583333 12.75,4.39701454 12.75,4.60948743 L12.75,60.4229167 L31.9375,51.0263305 L51.125,60.4229167 L51.125,4.60948743 C51.125,4.40312397 50.9539078,4.23583333 50.7451891,4.23583333 L13.1298109,4.23583333 Z"/>
    <filter id="integrate-old-tools-d" width="110.4%" height="107.1%" x="-5.2%" y="-1.8%" filterUnits="objectBoundingBox">
      <feOffset dy="1" in="SourceAlpha" result="shadowOffsetOuter1"/>
      <feGaussianBlur in="shadowOffsetOuter1" result="shadowBlurOuter1" stdDeviation=".5"/>
      <feColorMatrix in="shadowBlurOuter1" values="0 0 0 0 0   0 0 0 0 0   0 0 0 0 0  0 0 0 0.28 0"/>
    </filter>
    <filter id="integrate-old-tools-g" width="107.8%" height="105.3%" x="-3.9%" y="-.9%" filterUnits="objectBoundingBox">
      <feGaussianBlur in="SourceAlpha" result="shadowBlurInner1" stdDeviation=".5"/>
      <feOffset in="shadowBlurInner1" result="shadowOffsetInner1"/>
      <feComposite in="shadowOffsetInner1" in2="SourceAlpha" k2="-1" k3="1" operator="arithmetic" result="shadowInnerInner1"/>
      <feColorMatrix in="shadowInnerInner1" values="0 0 0 0 0   0 0 0 0 0   0 0 0 0 0  0 0 0 0.273409194 0"/>
    </filter>
    <polygon id="integrate-old-tools-h" points="31.922 37.314 23.624 43.383 26.665 33.588 18.257 27.619 28.679 27.619 31.922 17.557 35.235 27.505 45.639 27.619 37.228 33.588 40.376 43.383"/>
    <filter id="integrate-old-tools-i" width="103.7%" height="104%" x="-1.8%" y="-2%" filterUnits="objectBoundingBox">
      <feGaussianBlur in="SourceAlpha" result="shadowBlurInner1" stdDeviation=".5"/>
      <feOffset in="shadowBlurInner1" result="shadowOffsetInner1"/>
      <feComposite in="shadowOffsetInner1" in2="SourceAlpha" k2="-1" k3="1" operator="arithmetic" result="shadowInnerInner1"/>
      <feColorMatrix in="shadowInnerInner1" values="0 0 0 0 0   0 0 0 0 0   0 0 0 0 0  0 0 0 0.4 0"/>
    </filter>
    <radialGradient id="integrate-old-tools-j" cx="50%" cy="54.652%" r="71.953%" fx="50%" fy="54.652%" gradientTransform="matrix(.92093 0 0 1 .04 0)">
      <stop offset="0%" stop-color="#FFB900"/>
      <stop offset="60%" stop-color="#F95D8F"/>
      <stop offset="99.91%" stop-color="#F95353"/>
    </radialGradient>
  </defs>
  <g fill="none" fill-rule="evenodd" transform="translate(0 .487)">
    <path fill="#DCE2E6" d="M100.31801,85.1903663 L42.8739759,76.8336929 L42.8739759,76.3372415 L100.343512,67.5663422 C100.348626,64.0318046 103.218081,61.1706418 106.752619,61.1757562 C107.848105,61.1773414 108.924846,61.460104 109.879761,61.9969742 L127.630867,71.9769585 C130.037947,73.3302612 130.892202,76.3786534 129.538899,78.7857332 C129.091015,79.582372 128.433354,80.2410175 127.637386,80.6900936 L109.814631,90.7454929 C106.751708,92.4735597 102.867843,91.3914451 101.139776,88.3285221 C100.599528,87.3709555 100.316419,86.2898205 100.31801,85.1903663 L100.31801,85.1903663 Z" transform="rotate(30 89.122 76.378)"/>
    <path fill="#DCE2E6" d="M317.074563,85.1903663 L259.630529,76.8336929 L259.630529,76.3372415 L317.100065,67.5663422 C317.105179,64.0318046 319.974634,61.1706418 323.509172,61.1757562 C324.604658,61.1773414 325.681399,61.460104 326.636315,61.9969742 L344.38742,71.9769585 C346.7945,73.3302612 347.648755,76.3786534 346.295452,78.7857332 C345.847568,79.582372 345.189907,80.2410175 344.39394,80.6900936 L326.571184,90.7454929 C323.508261,92.4735597 319.624397,91.3914451 317.89633,88.3285221 C317.356081,87.3709555 317.072972,86.2898205 317.074563,85.1903663 L317.074563,85.1903663 Z" transform="scale(-1 1) rotate(30 0 -1065.175)"/>
    <path fill="#DCE2E6" d="M206.180941,261.707486 L148.868455,253.24666 L148.868455,252.748965 L206.180941,244.039291 C206.180941,240.513502 209.039157,237.655286 212.564946,237.655286 C213.667111,237.655286 214.750502,237.940632 215.709671,238.483552 L233.444612,248.522093 C235.847766,249.882355 236.693197,252.933206 235.332936,255.33636 C234.886336,256.125361 234.233613,256.778084 233.444612,257.224684 L215.709671,267.263225 C212.641321,269.000008 208.745991,267.920561 207.009207,264.852211 C206.466287,263.893042 206.180941,262.809651 206.180941,261.707486 L206.180941,261.707486 Z" transform="scale(1 -1) rotate(90 447.874 0)"/>
    <g transform="translate(131 67.773)">
      <path fill="#0AF" d="M79.9914417,4.21829913 C126.384875,16.6703838 134.633502,39.0736332 123.680873,80.0184585 C112.728244,120.963284 94.4019916,136.233786 48.0085583,123.781701 C1.615125,111.329616 -6.63350187,88.9263668 4.31912707,47.9815415 C15.271756,7.03671622 33.5980084,-8.23378556 79.9914417,4.21829913 Z"/>
      <path fill="#FFF" d="M52.4391702,62.7644154 L52.4391702,4.15187177 C52.4391702,1.10239362 54.9112607,-1.36969686 57.9607388,-1.36969686 C61.010217,-1.36969686 63.4823074,1.10239362 63.4823074,4.15187177 L63.4823074,68.285984 C63.4823074,71.3354621 61.010217,73.8075526 57.9607388,73.8075526 L32.1461366,73.8075526 C29.0966584,73.8075526 26.6245679,71.3354621 26.6245679,68.285984 C26.6245679,65.2365058 29.0966584,62.7644154 32.1461366,62.7644154 L52.4391702,62.7644154 Z" transform="rotate(45 30.911 70.361)"/>
    </g>
    <rect width="64" height="63.787" fill="#0079BF" rx="11.268"/>
    <rect width="19.38" height="27.851" x="36.056" y="8.535" fill="#FFF" rx="5.408"/>
    <rect width="19.38" height="44.022" x="8.563" y="8.086" fill="#FFF" rx="5.408"/>
    <g transform="translate(328)">
      <path fill="url(#integrate-old-tools-a)" d="M41.6869333,0 C48.112,0 51.3237333,0 54.7824,1.08968889 C58.5584,2.45950756 61.5322667,5.42346133 62.9066667,9.18687467 C64,12.6334809 64,15.8355716 64,22.2386898 L64,41.5479769 C64,47.9516267 64,51.1526542 62.9066667,54.599792 C61.5322667,58.3632053 58.5584,61.3271591 54.7824,62.6964462 C51.3237333,63.7866667 48.112,63.7866667 41.6869333,63.7866667 L22.3130667,63.7866667 C15.888,63.7866667 12.6757333,63.7866667 9.2176,62.6964462 C5.4416,61.3271591 2.46773333,58.3632053 1.09333333,54.599792 C0,51.1526542 0,47.9516267 0,41.5479769 L0,22.2386898 C0,15.8355716 0,12.6334809 1.09333333,9.18687467 C2.46773333,5.42346133 5.4416,2.45950756 9.2176,1.08968889 C12.6757333,0 15.888,0 22.3130667,0 L41.6869333,0 Z"/>
      <use fill="#000" filter="url(#integrate-old-tools-b)" xlink:href="#integrate-old-tools-c"/>
      <use fill="#FFF" xlink:href="#integrate-old-tools-c"/>
      <g fill-rule="nonzero">
        <use fill="#000" filter="url(#integrate-old-tools-d)" xlink:href="#integrate-old-tools-e"/>
        <use fill="url(#integrate-old-tools-f)" xlink:href="#integrate-old-tools-e"/>
        <use fill="#000" filter="url(#integrate-old-tools-g)" xlink:href="#integrate-old-tools-e"/>
      </g>
      <g fill-rule="nonzero">
        <use fill="#FFF" xlink:href="#integrate-old-tools-h"/>
        <use fill="#000" filter="url(#integrate-old-tools-i)" xlink:href="#integrate-old-tools-h"/>
      </g>
    </g>
    <path fill="url(#integrate-old-tools-j)" fill-rule="nonzero" d="M53.871602,33.5644085 C45.6018873,33.5644085 38.8991427,40.242918 38.8991427,48.4816358 C38.8991427,56.7208713 45.6018873,63.3998985 53.871602,63.3998985 C62.1402775,63.3998985 68.8435414,56.7208713 68.8435414,48.4816358 C68.8435414,40.242918 62.1402775,33.5644085 53.871602,33.5644085 L53.871602,33.5644085 Z M14.972199,33.5654438 C6.70352399,33.5654438 0,40.242918 0,48.4824123 C0,56.7208713 6.70352399,63.3998985 14.972199,63.3998985 C23.2413945,63.3998985 29.9451784,56.7208713 29.9451784,48.4824123 C29.9451784,40.242918 23.2413945,33.5654438 14.972199,33.5654438 L14.972199,33.5654438 Z M49.3935803,14.9172273 C49.3935803,23.1559452 42.6908356,29.8360076 34.4221602,29.8360076 C26.1527058,29.8360076 19.4497015,23.1559452 19.4497015,14.9172273 C19.4497015,6.67902715 26.1527058,0 34.4221602,0 C42.6908356,0 49.3935803,6.67902715 49.3935803,14.9172273 L49.3935803,14.9172273 Z" transform="translate(160 280.063)"/>
  </g>
</svg>
