<svg xmlns="http://www.w3.org/2000/svg" viewBox="0 0 90 90" width="100%" height="100%">
  <g fill="none" fill-rule="evenodd">
    <circle cx="45" cy="45" r="45" fill="#4070FF"/>
    <g fill="#FFF" transform="translate(15 16)">
      <path d="M24.3628265,19.7978399 L40.5631655,28.9105306 C41.1648628,29.2489853 41.3782631,30.0111292 41.0398083,30.6128265 C40.9275724,30.8123572 40.7626961,30.9772335 40.5631655,31.0894694 L24.3628265,40.2021601 C23.7611292,40.5406148 22.9989853,40.3272145 22.6605306,39.7255172 C22.5552857,39.5384151 22.5,39.3273617 22.5,39.1126906 L22.5,20.8873094 C22.5,20.1969534 23.0596441,19.6373094 23.75,19.6373094 C23.9646711,19.6373094 24.1757245,19.692595 24.3628265,19.7978399 Z"/>
      <path d="M26.7892793,0 L28.2107207,0 C29.2622924,2.50918626e-16 30.1789204,0.715681481 30.433964,1.73585586 L31.0038416,4.01536647 C31.2058724,4.82348968 31.8304999,5.45834685 32.6352349,5.67347746 L33.9692045,6.03008891 C34.7730249,6.24497502 35.6301669,6.00729422 36.2085342,5.409135 L37.8411847,3.72061468 C38.5721462,2.96463955 39.72381,2.80315519 40.6344978,3.32894103 L41.8655022,4.03966176 C42.77619,4.5654476 43.2121724,5.64355992 42.9229594,6.65457865 L42.2755576,8.91773932 C42.0465899,9.71815482 42.2697138,10.5797865 42.858395,11.1684677 L43.8315323,12.141605 C44.4202135,12.7302862 45.2818452,12.9534101 46.0822607,12.7244424 L48.3454214,12.0770406 C49.3564401,11.7878276 50.4345524,12.22381 50.9603382,13.1344978 L51.671059,14.3655022 C52.1968448,15.27619 52.0353604,16.4278538 51.2793853,17.1588153 L49.590865,18.7914658 C48.9927058,19.3698331 48.755025,20.2269751 48.9699111,21.0307955 L49.3265225,22.3647651 C49.5416531,23.1695001 50.1765103,23.7941276 50.9846335,23.9961584 L53.2641441,24.566036 C54.2843185,24.8210796 55,25.7377076 55,26.7892793 L55,28.2107207 C55,29.2622924 54.2843185,30.1789204 53.2641441,30.433964 L50.9846335,31.0038416 C50.1765103,31.2058724 49.5416531,31.8304999 49.3265225,32.6352349 L48.9699111,33.9692045 C48.755025,34.7730249 48.9927058,35.6301669 49.590865,36.2085342 L51.2793853,37.8411847 C52.0353604,38.5721462 52.1968448,39.72381 51.671059,40.6344978 L50.9603382,41.8655022 C50.4345524,42.77619 49.3564401,43.2121724 48.3454214,42.9229594 L46.0822607,42.2755576 C45.2818452,42.0465899 44.4202135,42.2697138 43.8315323,42.858395 L42.858395,43.8315323 C42.2697138,44.4202135 42.0465899,45.2818452 42.2755576,46.0822607 L42.9229594,48.3454214 C43.2121724,49.3564401 42.77619,50.4345524 41.8655022,50.9603382 L40.6344978,51.671059 C39.72381,52.1968448 38.5721462,52.0353604 37.8411847,51.2793853 L36.2085342,49.590865 C35.6301669,48.9927058 34.7730249,48.755025 33.9692045,48.9699111 L32.6352349,49.3265225 C31.8304999,49.5416531 31.2058724,50.1765103 31.0038416,50.9846335 L30.433964,53.2641441 C30.1789204,54.2843185 29.2622924,55 28.2107207,55 L26.7892793,55 C25.7377076,55 24.8210796,54.2843185 24.566036,53.2641441 L23.9961584,50.9846335 C23.7941276,50.1765103 23.1695001,49.5416531 22.3647651,49.3265225 L21.0307955,48.9699111 C20.2269751,48.755025 19.3698331,48.9927058 18.7914658,49.590865 L17.1588153,51.2793853 C16.4278538,52.0353604 15.27619,52.1968448 14.3655022,51.671059 L13.1344978,50.9603382 C12.22381,50.4345524 11.7878276,49.3564401 12.0770406,48.3454214 L12.7244424,46.0822607 C12.9534101,45.2818452 12.7302862,44.4202135 12.141605,43.8315323 L11.1684677,42.858395 C10.5797865,42.2697138 9.71815482,42.0465899 8.91773932,42.2755576 L6.65457865,42.9229594 C5.64355992,43.2121724 4.5654476,42.77619 4.03966176,41.8655022 L3.32894103,40.6344978 C2.80315519,39.72381 2.96463955,38.5721462 3.72061468,37.8411847 L5.409135,36.2085342 C6.00729422,35.6301669 6.24497502,34.7730249 6.03008891,33.9692045 L5.67347746,32.6352349 C5.45834685,31.8304999 4.82348968,31.2058724 4.01536647,31.0038416 L1.73585586,30.433964 C0.715681481,30.1789204 5.72869599e-16,29.2622924 0,28.2107207 L0,26.7892793 C-1.97384451e-15,25.7377076 0.715681481,24.8210796 1.73585586,24.566036 L4.01536647,23.9961584 C4.82348968,23.7941276 5.45834685,23.1695001 5.67347746,22.3647651 L6.03008891,21.0307955 C6.24497502,20.2269751 6.00729422,19.3698331 5.409135,18.7914658 L3.72061468,17.1588153 C2.96463955,16.4278538 2.80315519,15.27619 3.32894103,14.3655022 L4.03966176,13.1344978 C4.5654476,12.22381 5.64355992,11.7878276 6.65457865,12.0770406 L8.91773932,12.7244424 C9.71815482,12.9534101 10.5797865,12.7302862 11.1684677,12.141605 L12.141605,11.1684677 C12.7302862,10.5797865 12.9534101,9.71815482 12.7244424,8.91773932 L12.0770406,6.65457865 C11.7878276,5.64355992 12.22381,4.5654476 13.1344978,4.03966176 L14.3655022,3.32894103 C15.27619,2.80315519 16.4278538,2.96463955 17.1588153,3.72061468 L18.7914658,5.409135 C19.3698331,6.00729422 20.2269751,6.24497502 21.0307955,6.03008891 L22.3647651,5.67347746 C23.1695001,5.45834685 23.7941276,4.82348968 23.9961584,4.01536647 L24.566036,1.73585586 C24.8210796,0.715681481 25.7377076,6.37259794e-16 26.7892793,0 Z M27.5,45 C37.1649831,45 45,37.1649831 45,27.5 C45,17.8350169 37.1649831,10 27.5,10 C17.8350169,10 10,17.8350169 10,27.5 C10,37.1649831 17.8350169,45 27.5,45 Z" opacity=".498" transform="translate(2.5 2.5)"/>
    </g>
  </g>
</svg>
