<svg xmlns="http://www.w3.org/2000/svg" viewBox="0 0 90 90" width="100%" height="100%">
  <g fill="none" fill-rule="evenodd">
    <circle cx="45" cy="45" r="45" fill="#2BD9D9"/>
    <g fill="#FFF" transform="translate(15 16)">
      <rect width="30" height="22.5" opacity=".304" rx="5" transform="translate(2.5 2.5)"/>
      <rect width="30" height="22.5" opacity=".501" rx="5" transform="translate(27.5 32.5)"/>
      <path d="M25.9062692,52.1284847 C26.8108606,50.8412459 28.3071885,50 30,50 C32.7614237,50 35,52.2385763 35,55 C35,57.7614237 32.7614237,60 30,60 C28.0001657,60 26.2745501,58.8259305 25.4748287,57.1294673 C12.4400377,54.9714546 2.5,43.6465374 2.5,30 C2.5,28.6192881 3.61928813,27.5 5,27.5 C6.38071187,27.5 7.5,28.6192881 7.5,30 C7.5,41.0283852 15.4344554,50.2035791 25.9062692,52.1284847 Z M34.0937308,7.87151532 C33.1891394,9.15875409 31.6928115,10 30,10 C27.2385763,10 25,7.76142375 25,5 C25,2.23857625 27.2385763,0 30,0 C31.9998343,0 33.7254499,1.17406945 34.5251713,2.87053274 C47.5599623,5.02854541 57.5,16.3534626 57.5,30 C57.5,31.3807119 56.3807119,32.5 55,32.5 C53.6192881,32.5 52.5,31.3807119 52.5,30 C52.5,18.9716148 44.5655446,9.79642093 34.0937308,7.87151532 Z"/>
    </g>
  </g>
</svg>
