<svg xmlns="http://www.w3.org/2000/svg" viewBox="0 0 90 90" width="100%" height="100%">
  <g fill="none" fill-rule="evenodd">
    <circle cx="45" cy="45" r="45" fill="#A179F2"/>
    <g fill="#FFF" transform="translate(15 16)">
      <g opacity=".497" transform="translate(0 7.5)">
        <path d="M12.819426,-2.07168062e-16 L47.180574,-2.07168062e-16 C51.6381677,-2.07168062e-16 53.2545989,0.464128056 54.8842285,1.33566352 C56.5138581,2.20719898 57.792801,3.48614185 58.6643365,5.11577148 C59.5358719,6.74540111 60,8.3618323 60,12.819426 L60,32.180574 C60,36.6381677 59.5358719,38.2545989 58.6643365,39.8842285 C57.792801,41.5138581 56.5138581,42.792801 54.8842285,43.6643365 C53.2545989,44.5358719 51.6381677,45 47.180574,45 L12.819426,45 C8.3618323,45 6.74540111,44.5358719 5.11577148,43.6643365 C3.48614185,42.792801 2.20719898,41.5138581 1.33566352,39.8842285 C0.464128056,38.2545989 -1.38112041e-16,36.6381677 -1.38112041e-16,32.180574 L-1.38112041e-16,12.819426 C-1.38112041e-16,8.3618323 0.464128056,6.74540111 1.33566352,5.11577148 C2.20719898,3.48614185 3.48614185,2.20719898 5.11577148,1.33566352 C6.74540111,0.464128056 8.3618323,-2.07168062e-16 12.819426,-2.07168062e-16 Z M12.819426,2.5 C9.13275464,2.5 7.73509797,2.76989995 6.29476863,3.54019651 C5.10081018,4.17873248 4.17873248,5.10081018 3.54019651,6.29476863 C2.76989995,7.73509797 2.5,9.13275464 2.5,12.819426 L2.5,32.180574 C2.5,35.8672454 2.76989995,37.264902 3.54019651,38.7052314 C4.17873248,39.8991898 5.10081018,40.8212675 6.29476863,41.4598035 C7.73509797,42.2301 9.13275464,42.5 12.819426,42.5 L47.180574,42.5 C50.8672454,42.5 52.264902,42.2301 53.7052314,41.4598035 C54.8991898,40.8212675 55.8212675,39.8991898 56.4598035,38.7052314 C57.2301,37.264902 57.5,35.8672454 57.5,32.180574 L57.5,12.819426 C57.5,9.13275464 57.2301,7.73509797 56.4598035,6.29476863 C55.8212675,5.10081018 54.8991898,4.17873248 53.7052314,3.54019651 C52.264902,2.76989995 50.8672454,2.5 47.180574,2.5 L12.819426,2.5 Z"/>
        <rect width="2.5" height="25" x="35" y="10"/>
      </g>
      <path d="M18.1648199,17.5 L21.9390582,17.5 L32.5,42.5 L27.5138504,42.5 L25.2285319,36.779661 L14.598338,36.779661 L12.3822715,42.5 L7.5,42.5 L18.1648199,17.5 Z M23.7049861,32.9661017 L19.9307479,22.7966102 L16.0872576,32.9661017 L23.7049861,32.9661017 Z"/>
    </g>
  </g>
</svg>
