<svg xmlns="http://www.w3.org/2000/svg" viewBox="0 0 90 90" width="100%" height="100%">
  <g fill="none" fill-rule="evenodd">
    <circle cx="45" cy="45" r="45" fill="#0AF"/>
    <g fill="#FFF" transform="translate(15 16)">
      <path d="M15,27.5 C8.09644063,27.5 2.5,21.9035594 2.5,15 C2.5,8.09644063 8.09644063,2.5 15,2.5 C21.9035594,2.5 27.5,8.09644063 27.5,15 C27.5,21.9035594 21.9035594,27.5 15,27.5 Z M12.3958333,16.8275162 L10.0758252,14.5075081 C9.34359217,13.7752751 8.15640783,13.7752751 7.42417479,14.5075081 C6.69194174,15.2397412 6.69194174,16.4269255 7.42417479,17.1591585 L12.3958333,22.1308171 L22.5758252,11.9508252 C23.3080583,11.2185922 23.3080583,10.0314078 22.5758252,9.29917479 C21.8435922,8.56694174 20.6564078,8.56694174 19.9241748,9.29917479 L12.3958333,16.8275162 Z M32.5,15 C32.5,13.6192881 33.6227655,12.5 35.000016,12.5 L54.999984,12.5 C56.3807047,12.5 57.5,13.6096621 57.5,15 C57.5,16.3807119 56.3772345,17.5 54.999984,17.5 L35.000016,17.5 C33.6192953,17.5 32.5,16.3903379 32.5,15 Z"/>
      <path d="M12.5,25 C5.59644063,25 0,19.4035594 0,12.5 C0,5.59644063 5.59644063,0 12.5,0 C19.4035594,0 25,5.59644063 25,12.5 C25,19.4035594 19.4035594,25 12.5,25 Z M12.5,21.25 C17.3324916,21.25 21.25,17.3324916 21.25,12.5 C21.25,7.66750844 17.3324916,3.75 12.5,3.75 C7.66750844,3.75 3.75,7.66750844 3.75,12.5 C3.75,17.3324916 7.66750844,21.25 12.5,21.25 Z M30,12.5 C30,11.1192881 31.1227655,10 32.500016,10 L52.499984,10 C53.8807047,10 55,11.1096621 55,12.5 C55,13.8807119 53.8772345,15 52.499984,15 L32.500016,15 C31.1192953,15 30,13.8903379 30,12.5 Z" opacity=".504" transform="translate(2.5 32.5)"/>
    </g>
  </g>
</svg>
