<svg xmlns="http://www.w3.org/2000/svg" viewBox="0 0 90 90" width="100%" height="100%">
  <g fill="none" fill-rule="evenodd">
    <circle cx="45" cy="45" r="45" fill="#FA0"/>
    <path fill="#FFF" d="M43.8178677,21.1821323 C43.2182483,20.2788607 42.5282528,19.4352337 41.7579577,18.6649386 C38.7277263,15.6347073 34.639241,13.9054238 30.2674725,13.9054238 C25.8957039,13.9054238 21.8072187,15.6347073 18.7769873,18.6649386 C17.267199,20.174727 16.0658939,21.9662305 15.2489435,23.9363893 C14.4556476,25.8495028 12.2616693,26.7572944 10.3485557,25.9639985 C8.43544216,25.1707027 7.52765056,22.9767243 8.32094644,21.0636107 C9.51621186,18.1811068 11.2707375,15.5645867 13.4736864,13.3616378 C17.8964974,8.93882677 23.8861348,6.40542381 30.2674725,6.40542381 C36.6488102,6.40542381 42.6384476,8.93882677 47.0612585,13.3616378 C47.8280366,14.1284158 48.5404873,14.9452989 49.1939368,15.8060632 L55,10 L57.5,30 L37.5,27.5 L43.8178677,21.1821323 Z M16.387943,38.612057 C17.0596201,39.711586 17.8616048,40.7305265 18.7769873,41.645909 C21.8072187,44.6761404 25.8957039,46.4054238 30.2674725,46.4054238 C34.639241,46.4054238 38.7277263,44.6761404 41.7579577,41.645909 C43.267746,40.1361207 44.4690511,38.3446171 45.2860015,36.3744584 C46.0792973,34.4613448 48.2732757,33.5535532 50.1863893,34.3468491 C52.0995028,35.140145 53.0072944,37.3341233 52.2139985,39.2472369 C51.0187331,42.1297408 49.2642075,44.7462609 47.0612585,46.9492099 C42.6384476,51.3720209 36.6488102,53.9054238 30.2674725,53.9054238 C23.8861348,53.9054238 17.8964974,51.3720209 13.4736864,46.9492099 C12.5638638,46.0393873 11.7305292,45.0590215 10.9814904,44.0185096 L5,50 L2.5,30 L22.5,32.5 L16.387943,38.612057 Z" transform="translate(15 16)"/>
  </g>
</svg>
