<svg xmlns="http://www.w3.org/2000/svg" viewBox="0 0 90 90" width="100%" height="100%">
  <g fill="none" fill-rule="evenodd">
    <circle cx="45" cy="45" r="45" fill="#FF4019"/>
    <g fill="#FFF" transform="translate(15 16)">
      <path d="M15.5,12.5 L15.5,0 C26.545695,0 35.5,8.954305 35.5,20 C35.5,31.045695 26.545695,40 15.5,40 C9.49836447,40 4.11415956,37.3564652 0.448261102,33.1702715 L9.85559791,24.9388518 C11.2303098,26.5086745 13.2493867,27.5 15.5,27.5 C19.6421356,27.5 23,24.1421356 23,20 C23,15.8578644 19.6421356,12.5 15.5,12.5 Z" opacity=".3" transform="translate(14.5 10)"/>
      <path d="M29.4042002,33.7029311 L17.8252253,43.098412 C16.7530721,43.9683849 15.1786679,43.8044854 14.308695,42.7323322 C13.4387221,41.660179 13.6026215,40.0857748 14.6747747,39.2158019 L26.254248,29.8199167 C26.3482149,27.8324771 27.9893038,26.25 30,26.25 C32.0710678,26.25 33.75,27.9289322 33.75,30 C33.75,32.0710678 32.0710678,33.75 30,33.75 C29.7972391,33.75 29.5982366,33.7339079 29.4042002,33.7029311 Z M30,57.5 C14.8121694,57.5 2.5,45.1878306 2.5,30 C2.5,14.8121694 14.8121694,2.5 30,2.5 C45.1878306,2.5 57.5,14.8121694 57.5,30 C57.5,45.1878306 45.1878306,57.5 30,57.5 Z M30,52.5 C42.4264069,52.5 52.5,42.4264069 52.5,30 C52.5,17.5735931 42.4264069,7.5 30,7.5 C17.5735931,7.5 7.5,17.5735931 7.5,30 C7.5,42.4264069 17.5735931,52.5 30,52.5 Z"/>
    </g>
  </g>
</svg>
