<svg xmlns="http://www.w3.org/2000/svg" xmlns:xlink="http://www.w3.org/1999/xlink" viewBox="0 0 436 176" width="100%" height="100%">
  <defs>
    <ellipse id="integration-logos-a" cx="32" cy="31.5" rx="32" ry="31.5"/>
    <linearGradient id="integration-logos-c" x1="50%" x2="50%" y1="100%" y2="0%">
      <stop offset="0%" stop-color="#0054E6"/>
      <stop offset="100%" stop-color="#1984DE"/>
    </linearGradient>
    <linearGradient id="integration-logos-d" x1="39.92%" x2="51.491%" y1="5.351%" y2="101.906%">
      <stop offset="0%" stop-color="#FFF"/>
      <stop offset="100%" stop-color="#DAE5F5"/>
    </linearGradient>
    <linearGradient id="integration-logos-e" x1="64.934%" x2="44.505%" y1="5.984%" y2="105.187%">
      <stop offset="0%" stop-color="#DAE5F2"/>
      <stop offset="23.96%" stop-color="#D5E2F1"/>
      <stop offset="52.19%" stop-color="#C7D9EE"/>
      <stop offset="82.46%" stop-color="#AFCBE9"/>
      <stop offset="100%" stop-color="#9EC0E6"/>
    </linearGradient>
    <linearGradient id="integration-logos-f" x1="49.958%" x2="49.958%" y1="1.178%" y2="98.59%">
      <stop offset="0%" stop-color="#FAFCFF"/>
      <stop offset="100%" stop-color="#CEDCF2"/>
    </linearGradient>
    <linearGradient id="integration-logos-g" x1="49.547%" x2="50.063%" y1="1.965%" y2="99.669%">
      <stop offset="0%" stop-color="#D0DEF2"/>
      <stop offset="100%" stop-color="#72A0DC"/>
    </linearGradient>
    <linearGradient id="integration-logos-h" x1="50.073%" x2="50.073%" y1="1.18%" y2="98.589%">
      <stop offset="0%" stop-color="#FFF"/>
      <stop offset="100%" stop-color="#EBF0FF"/>
    </linearGradient>
    <linearGradient id="integration-logos-i" x1="49.918%" x2="49.918%" y1="1.182%" y2="98.589%">
      <stop offset="0%" stop-color="#FFF"/>
      <stop offset="100%" stop-color="#EBF0FF"/>
    </linearGradient>
    <linearGradient id="integration-logos-j" x1="49.886%" x2="49.886%" y1="1.196%" y2="98.594%">
      <stop offset="0%" stop-color="#FFF"/>
      <stop offset="100%" stop-color="#CEDCF2"/>
    </linearGradient>
    <linearGradient id="integration-logos-k" x1=".004%" x2="100.032%" y1="49.998%" y2="49.998%">
      <stop offset="0%" stop-opacity=".1"/>
      <stop offset="100%" stop-opacity=".2"/>
    </linearGradient>
  </defs>
  <g fill="none" fill-rule="evenodd">
    <g transform="translate(0 113)">
      <path fill="#2C3033" d="M24.5248287,50.5727344 C24.5670667,50.8107619 24.3241982,51.0558946 23.9780813,51.1198423 C23.6378308,51.18379 23.3222191,51.0369472 23.2788078,50.8001039 C23.2365698,50.5561553 23.4829581,50.3110226 23.8232087,50.2482591 C24.1704988,50.1878641 24.4802441,50.32997 24.5248287,50.5727344 M22.2909081,50.9564205 C22.299121,51.200369 22.0175344,51.40287 21.669071,51.4076069 C21.3182609,51.4158964 21.0343278,51.2181323 21.0308079,50.9777364 C21.0308079,50.7302351 21.3053549,50.5301026 21.6561649,50.5241815 C22.0058016,50.5182604 22.2909081,50.7136561 22.2909081,50.9564205 M19.8903821,50.778788 C19.8199854,51.0108944 19.4902944,51.1162897 19.1570836,51.0168155 C18.8262193,50.9161571 18.6091629,50.6449716 18.6760398,50.4104967 C18.7440899,50.1772061 19.0761274,50.067074 19.4105115,50.1724693 C19.7413758,50.2731276 19.9596055,50.543129 19.8903821,50.778788 M17.7045659,49.8231254 C17.5438269,50.0019421 17.2012298,49.9533892 16.9513217,49.7094407 C16.6943739,49.470229 16.6239772,49.1315431 16.7847162,48.9527265 C16.9478018,48.7739098 17.2915722,48.8236469 17.5438269,49.0664112 C17.7984281,49.3044387 17.8758644,49.645493 17.7045659,49.8231254 M16.1206411,48.1758806 C15.9411296,48.3014075 15.6466369,48.1829859 15.4647789,47.9200898 C15.2852674,47.6571938 15.2852674,47.3410081 15.469472,47.2142969 C15.6513301,47.0875858 15.9411296,47.2012705 16.1241609,47.4629823 C16.3036724,47.7306152 16.3036724,48.046801 16.1206411,48.1758806 M14.9637894,46.4706091 C14.8241693,46.6008729 14.5507956,46.5404778 14.3654178,46.33324 C14.1730003,46.1271863 14.1378019,45.8500797 14.2785952,45.7186317 C14.4229084,45.5871837 14.6880691,45.6487629 14.8804867,45.8548166 C15.0729042,46.0632386 15.1104491,46.3379768 14.9637894,46.4706091 M13.7752591,45.1324446 C13.7119022,45.2804717 13.4819397,45.3242877 13.2730963,45.2224451 C13.0607331,45.1265235 12.9410588,44.926391 13.0091089,44.7783639 C13.0724659,44.6267843 13.3024283,44.5841525 13.5147915,44.6859951 C13.728328,44.7831008 13.8491756,44.9856018 13.7752591,45.1324446 M31.9986071,2.625 C15.8003363,2.625 2.66666667,15.8799332 2.66666667,32.2315921 C2.66666667,45.3112613 11.0708542,56.4085524 22.7250208,60.3235715 C24.1916178,60.5971255 24.728979,59.6817263 24.728979,58.8989593 C24.728979,58.1943506 24.7019936,55.8614444 24.6890875,53.3876166 C16.5289417,55.1781516 14.8077434,49.8941784 14.8077434,49.8941784 C13.4725535,46.4729775 11.5507248,45.5623151 11.5507248,45.5623151 C8.88973115,43.7244114 11.7513553,43.7634906 11.7513553,43.7634906 C14.6962821,43.9719126 16.2473551,46.8140318 16.2473551,46.8140318 C18.8637642,51.3401065 23.1098559,50.0315475 24.7829497,49.2748333 C25.0469372,47.3611397 25.8072211,46.0549491 26.6449413,45.3159982 C20.130904,44.5675734 13.2813093,42.0286137 13.2813093,30.6850056 C13.2813093,27.452095 14.4276015,24.8112927 16.3036724,22.7377299 C15.9997935,21.9916736 14.9954679,18.9813957 16.5876056,14.9029548 C16.5876056,14.9029548 19.0514886,14.1071614 24.6562358,17.9381012 C26.9957513,17.2820453 29.5053922,16.9528332 31.9986071,16.940991 C34.4906488,16.9528332 37.0026361,17.2820453 39.3468448,17.9381012 C44.9445523,14.1071614 47.4049155,14.9029548 47.4049155,14.9029548 C49.000573,18.9813957 47.9962474,21.9916736 47.6923685,22.7377299 C49.5731325,24.8112927 50.7112118,27.452095 50.7112118,30.6850056 C50.7112118,42.0558506 43.848711,44.5592839 37.3170745,45.2923138 C38.3695046,46.2112657 39.3069534,48.0136429 39.3069534,50.7752354 C39.3069534,54.7364389 39.2729283,57.9243493 39.2729283,58.8989593 C39.2729283,59.6876474 39.8009032,60.6113361 41.287446,60.3200189 C52.9357462,56.4014471 61.3305475,45.3077086 61.3305475,32.2315921 C61.3305475,15.8799332 48.1968779,2.625 31.9986071,2.625"/>
      <g fill="#03363D" transform="translate(126.667 10.5)">
        <polygon points="26.667 13.125 26.667 44.625 0 44.625"/>
        <path d="M26.6666667-6.51007026e-14C26.6666667 7.24873734 20.69713 13.125 13.3333333 13.125 5.96953667 13.125-4.31876757e-14 7.24873734-4.31876757e-14-6.51007026e-14L26.6666667-6.51007026e-14 26.6666667-6.51007026e-14zM32 44.625C32 37.3762627 37.9695367 31.5 45.3333333 31.5 52.69713 31.5 58.6666667 37.3762627 58.6666667 44.625L32 44.625z"/>
        <polygon points="32 31.5 32 0 58.667 0"/>
      </g>
      <g transform="translate(372)">
        <mask id="integration-logos-b" fill="#fff">
          <use xlink:href="#integration-logos-a"/>
        </mask>
        <use fill="#D8D8D8" xlink:href="#integration-logos-a"/>
        <g mask="url(#integration-logos-b)">
          <polygon fill="#FF4A00" points="0 62.884 63.96 62.884 63.96 0 0 0"/>
          <path fill="#FFF" d="M36.4298361,31.4496315 C36.4290223,32.7501406 36.1871441,33.9950471 35.7462096,35.1443994 C34.5775552,35.5778191 33.3107459,35.8162799 31.9874847,35.81723 L31.9721258,35.81723 C30.6495258,35.8162799 29.3830216,35.5785191 28.2143672,35.1451994 C27.7734836,33.9959972 27.5306899,32.7504906 27.5297745,31.4496315 L27.5297745,31.4344808 C27.5306899,30.1340217 27.7729241,28.8890151 28.2130958,27.7398129 C29.3824113,27.3062432 30.6489663,27.0676323 31.9721258,27.0668323 L31.9874847,27.0668323 C33.3107459,27.0676323 34.5775552,27.3062432 35.7462096,27.7398129 C36.1871441,28.8890151 36.4290223,30.1340217 36.4298361,31.4344808 L36.4298361,31.4496315 Z M49.532761,28.5252486 L39.1420663,28.5252486 L46.48894,21.3017203 C45.9117074,20.504284 45.2678515,19.7566 44.5655604,19.0662687 L44.5652044,19.0659187 C43.8636252,18.3764373 43.1037125,17.7439086 42.2935527,17.1768828 L34.9464755,24.4002111 L34.9464755,14.1847468 C33.9845569,14.0257396 32.997006,13.9417358 31.9892648,13.9412358 L31.9702949,13.9412358 C30.9626045,13.9417358 29.9750537,14.0257396 29.013135,14.1847468 L29.013135,24.4003111 L21.6660579,17.1768828 C20.8554403,17.7444086 20.0952733,18.3769373 19.3935416,19.0668687 L19.3909478,19.0693188 C18.689979,19.7587501 18.0472928,20.5055341 17.4706706,21.3017203 L24.8177477,28.5252486 L14.4271038,28.5252486 C14.4271038,28.5252486 14.1800381,30.4439858 14.1796821,31.4356308 L14.1796821,31.4481314 C14.1800381,32.4400265 14.2656821,33.4121707 14.4272055,34.3588137 L24.8175951,34.3588137 L17.4706706,41.582242 C18.6252883,43.1763144 20.0447209,44.5720778 21.6661596,45.7072794 L29.013135,38.4839011 L29.013135,48.6994654 C29.9739857,48.8579226 30.9605702,48.9421264 31.9671417,48.9428265 L31.9926214,48.9428265 C32.999142,48.9421264 33.9856249,48.8579226 34.9464755,48.6995654 L34.9464755,38.4837511 L42.2936544,45.7071794 C43.1039668,45.1399036 43.8638795,44.5075249 44.5655604,43.8177936 L44.5673404,43.8161435 C45.2688687,43.1262621 45.912216,42.3790782 46.48894,41.582442 L39.1419646,34.3588137 L49.5322525,34.3588137 C49.6934707,33.4141207 49.7794199,32.4441267 49.7799285,31.4544317 L49.7799285,31.4294305 C49.7794199,30.4398356 49.6934707,29.4699415 49.532761,28.5252486 L49.532761,28.5252486 Z"/>
        </g>
      </g>
      <g fill-rule="nonzero" transform="translate(248)">
        <path fill="#25C16F" d="M31.8566234,0.0904260651 L55.8671458,0.0904260651 C58.0118091,0.0715260908 60.0743315,0.899354795 61.5909007,2.38808074 C63.1074699,3.87680668 63.9507813,5.90146252 63.9315278,8.00675114 L63.9315278,31.5764553 C63.9315278,48.8473691 49.668498,62.8482314 32.0745707,62.8482314 L31.892948,62.8482314 C23.4377542,62.8576751 15.3255624,59.5671602 9.34342798,53.7015423 C3.36129355,47.8359244 0,39.8764223 0,31.5764553 C0,14.2468392 14.2392205,0.269041908 31.8566234,0.0904260651 Z"/>
        <path fill="#FFF" d="M31.8566234,14.068551 C23.7718427,14.068551 17.217833,20.5022332 17.217833,28.4385824 L17.217833,38.2087775 C17.2755563,40.8238324 19.4213579,42.9302385 22.0853216,42.9869021 L26.2263194,42.9869021 L26.2263194,31.7547435 L20.6323399,31.7547435 L20.6323399,28.6168706 C20.9730219,22.7073389 25.954071,18.0866236 31.9837593,18.0866236 C38.0134476,18.0866236 42.9944967,22.7073389 43.3351787,28.6168706 L43.3351787,31.7547435 L37.6685502,31.7547435 L37.6685502,42.9869021 L41.409978,42.9869021 L41.409978,43.1651903 C41.3710523,45.5911401 39.3770565,47.5485274 36.9057348,47.5867384 L32.4378161,47.5867384 C32.0745707,47.5867384 31.6750007,47.7650267 31.6750007,48.1216031 C31.6934022,48.5274422 32.0243867,48.85235 32.4378161,48.8704137 L36.9420593,48.8704137 C40.1436502,48.850953 42.7341614,46.308002 42.7539861,43.1651903 L42.7539861,42.8086138 C44.9577949,42.3215301 46.5163561,40.3905291 46.4954139,38.1731198 L46.4954139,28.6168706 C46.6770366,20.522585 40.138619,14.068551 31.8566234,14.068551 Z"/>
      </g>
    </g>
    <path fill="#E01E5A" fill-rule="nonzero" d="M-1.55431223e-15,40.3128282 C-0.00154586442,41.9521146 0.659825642,43.5248654 1.83862552,44.6850931 C3.0174254,45.8453207 4.61709238,46.4979852 6.28571764,46.4995077 C7.95434289,46.4979852 9.55400988,45.8453207 10.7328098,44.6850931 C11.9116096,43.5248654 12.5729811,41.9521146 12.5714327,40.3128282 L12.5714327,34.125 L6.28571764,34.125 C4.61668677,34.1265222 3.01666504,34.7795021 1.83779792,35.9402268 C0.658930795,37.1009515 -0.00216658338,38.6742926 -1.55431223e-15,40.3139768 M16.7619009,40.3128282 L16.7619009,56.8121718 C16.7600433,58.4516571 17.4212777,60.0247031 18.6001112,61.1851793 C19.7789447,62.3456554 21.3787891,62.9984776 23.0476171,63 C24.7164452,62.9984776 26.3162895,62.3456554 27.495123,61.1851793 C28.6739565,60.0247031 29.3351909,58.4516571 29.3333333,56.8121718 L29.3333333,40.3139768 C29.3351909,38.6744915 28.6739565,37.1014455 27.495123,35.9409694 C26.3162895,34.7804933 24.7164452,34.127671 23.0476171,34.1261487 C21.3787891,34.127671 19.7789447,34.7804933 18.6001112,35.9409694 C17.4212777,37.1014455 16.7600433,38.6744915 16.7619009,40.3139768"/>
    <path fill="#36C5F0" fill-rule="nonzero" d="M23.0476168,0 C21.3787887,0.00152238307 19.7789443,0.65434461 18.6001107,1.81482075 C17.4212772,2.97529688 16.7600427,4.54834285 16.7619003,6.18782819 C16.760353,7.82711462 17.4217245,9.39986544 18.6005245,10.5600931 C19.7793244,11.7203207 21.3789915,12.3729852 23.0476168,12.3745077 L29.3333333,12.3745077 L29.3333333,6.18782819 C29.3351909,4.54834285 28.6739564,2.97529688 27.4951229,1.81482075 C26.3162893,0.65434461 24.7164449,0.00152238307 23.0476168,0 M23.0476168,16.5004923 L6.28571653,16.5004923 C4.61709119,16.5020148 3.01742413,17.1546793 1.83862419,18.3149069 C0.659824259,19.4751346 -0.00154727938,21.0478854 -8.05257528e-14,22.6871718 C-0.00185760119,24.3266571 0.659376892,25.8997031 1.83821044,27.0601793 C3.01704399,28.2206554 4.6168884,28.8734776 6.28571653,28.875 L23.0476168,28.875 C24.7164449,28.8734776 26.3162893,28.2206554 27.4951229,27.0601793 C28.6739564,25.8997031 29.3351909,24.3266571 29.3333333,22.6871718 C29.3348806,21.0478854 28.6735091,19.4751346 27.4947091,18.3149069 C26.3159092,17.1546793 24.7162421,16.5020148 23.0476168,16.5004923"/>
    <path fill="#ECB22E" fill-rule="nonzero" d="M40.9523832,63 C42.6212113,62.9984776 44.2210557,62.3456554 45.3998893,61.1851793 C46.5787228,60.0247031 47.2399573,58.4516571 47.2380997,56.8121718 C47.239647,55.1728854 46.5782755,53.6001346 45.3994755,52.4399069 C44.2206756,51.2796793 42.6210085,50.6270148 40.9523832,50.6254923 L34.6666667,50.6254923 L34.6666667,56.8121718 C34.6648091,58.4516571 35.3260436,60.0247031 36.5048771,61.1851793 C37.6837107,62.3456554 39.2835551,62.9984776 40.9523832,63 M40.9523832,46.4995077 L57.7142835,46.4995077 C59.3829088,46.4979852 60.9825759,45.8453207 62.1613758,44.6850931 C63.3401757,43.5248654 64.0015473,41.9521146 64,40.3128282 C64.0018576,38.6733429 63.3406231,37.1002969 62.1617896,35.9398207 C60.982956,34.7793446 59.3831116,34.1265224 57.7142835,34.125 L40.9523832,34.125 C39.2835551,34.1265224 37.6837107,34.7793446 36.5048771,35.9398207 C35.3260436,37.1002969 34.6648091,38.6733429 34.6666667,40.3128282 C34.6651194,41.9521146 35.3264909,43.5248654 36.5052909,44.6850931 C37.6840908,45.8453207 39.2837579,46.4979852 40.9523832,46.4995077"/>
    <path fill="#2EB67D" fill-rule="nonzero" d="M64,22.6871718 C64.0015473,21.0478854 63.3401757,19.4751346 62.1613758,18.3149069 C60.9825759,17.1546793 59.3829088,16.5020148 57.7142835,16.5004923 C56.0456581,16.5020148 54.4459911,17.1546793 53.2671911,18.3149069 C52.0883912,19.4751346 51.4270197,21.0478854 51.4285681,22.6871718 L51.4285681,28.875 L57.7142835,28.875 C59.3831116,28.8734776 60.982956,28.2206554 62.1617896,27.0601793 C63.3406231,25.8997031 64.0018576,24.3266571 64,22.6871718 M47.2380997,22.6871718 L47.2380997,6.18782819 C47.2399573,4.54834285 46.5787228,2.97529688 45.3998893,1.81482075 C44.2210557,0.65434461 42.6212113,0.00152238307 40.9523832,0 C39.2835551,0.00152238307 37.6837107,0.65434461 36.5048771,1.81482075 C35.3260436,2.97529688 34.6648091,4.54834285 34.6666667,6.18782819 L34.6666667,22.6871718 C34.6648091,24.3266571 35.3260436,25.8997031 36.5048771,27.0601793 C37.6837107,28.2206554 39.2835551,28.8734776 40.9523832,28.875 C42.6212113,28.8734776 44.2210557,28.2206554 45.3998893,27.0601793 C46.5787228,25.8997031 47.2399573,24.3266571 47.2380997,22.6871718"/>
    <path fill="#0061FF" fill-rule="nonzero" d="M32.0405333,15.1225256 L16.0202667,25.0012311 L32.0405333,34.8737566 L16.0202667,44.7483422 L0,34.7913568 L16.0202667,24.9178013 L0,15.1225256 L16.0202667,5.25 L32.0405333,15.1225256 Z M15.9338667,47.8764444 L31.9594667,37.9987689 L47.9797333,47.8764444 L31.9594667,57.75 L15.9338667,47.8764444 Z M32.0405333,34.7913568 L48.0661333,24.9178013 L32.0405333,15.1225256 L47.9797333,5.25 L64,15.1225256 L47.9797333,25.0012311 L64,34.8737566 L47.9797333,44.7483422 L32.0405333,34.7913568 L32.0405333,34.7913568 Z" transform="translate(372)"/>
    <g transform="translate(248)">
      <path fill="url(#integration-logos-c)" fill-rule="nonzero" d="M49.9030837,63 L14.0969163,63 C6.30837004,63 0,56.7901982 0,49.123348 L0,13.876652 C0,6.20980176 6.30837004,0 14.0969163,0 L49.9030837,0 C57.69163,0 64,6.20980176 64,13.876652 L64,49.123348 C64,56.7901982 57.69163,63 49.9030837,63 Z"/>
      <g fill-rule="nonzero" transform="translate(10.925 7.285)">
        <path fill="url(#integration-logos-d)" d="M42.0511013,42.0809471 L21.7515419,0.478744493 C21.476652,-0.0763215859 20.6731278,-0.0763215859 20.3982379,0.478744493 L0.0986784141,42.0809471 C-0.183259912,42.6568282 0.366519824,43.1980176 0.95154185,42.9274229 L16.2185022,35.9752203 C16.338326,35.9197137 16.4722467,35.9127753 16.585022,35.9544053 C16.7259912,36.0029736 16.845815,36.1070485 16.8951542,36.2527533 L20.722467,47.1389868 C20.8422907,47.4650881 21.307489,47.4650881 21.4273128,47.1389868 L25.2475771,36.2596916 C25.3039648,36.1139868 25.4167401,36.0029736 25.5577093,35.9613436 C25.677533,35.9197137 25.8044053,35.926652 25.9242291,35.9821586 L41.1911894,42.9343612 C41.7832599,43.2049559 42.3330396,42.6568282 42.0511013,42.0809471 Z"/>
        <path fill="url(#integration-logos-e)" d="M21.0748899,0.0624449339 C20.8070485,0.0624449339 20.539207,0.201211454 20.3982379,0.478744493 L0.0986784141,42.0809471 C-0.183259912,42.6568282 0.366519824,43.1980176 0.95154185,42.9274229 L16.2185022,35.9752203 C16.338326,35.9197137 16.4722467,35.9127753 16.585022,35.9544053 L20.5110132,0.936674009 C20.539207,0.679955947 20.8493392,0.485682819 21.0748899,0.485682819 L21.0748899,0.0624449339 Z"/>
        <path fill="url(#integration-logos-f)" d="M25.5647577,35.9544053 C25.4237885,36.0029736 25.3039648,36.1070485 25.2546256,36.2527533 L21.4273128,47.1389868 C21.307489,47.4650881 20.8422907,47.4650881 20.722467,47.1389868 L16.9022026,36.2596916 C16.845815,36.1139868 16.7259912,36.0029736 16.5920705,35.9613436 L20.5180617,0.881167401 C20.5744493,0.367731278 21.5823789,0.367731278 21.6387665,0.881167401 L25.5647577,35.9544053 Z"/>
        <path fill="url(#integration-logos-g)" d="M21.6317181,0.874229075 C21.6035242,0.617511013 21.2722467,0.492621145 21.0748899,0.492621145 L21.0748899,47.3818282 C21.2229075,47.3818282 21.3709251,47.2985683 21.4273128,47.1389868 L25.2475771,36.2596916 C25.3039648,36.1139868 25.4167401,36.0029736 25.5577093,35.9613436 L21.6317181,0.874229075 Z"/>
        <path fill="url(#integration-logos-h)" d="M21.6105727,0.700770925 L25.4378855,36.0168502 C25.4731278,35.9890969 25.5154185,35.9752203 25.5577093,35.9613436 C25.5929515,35.947467 25.6352423,35.9405286 25.677533,35.9405286 L21.7938326,0.686894273 C21.7867841,0.631387665 21.7585903,0.617511013 21.6951542,0.624449339 C21.6317181,0.624449339 21.6105727,0.645264317 21.6105727,0.700770925 Z"/>
        <path fill="url(#integration-logos-i)" d="M20.539207,0.700770925 L16.7118943,36.0168502 C16.676652,35.9890969 16.6343612,35.9752203 16.5920705,35.9613436 C16.5568282,35.947467 16.5145374,35.9405286 16.4722467,35.9405286 L20.3559471,0.686894273 C20.3629956,0.631387665 20.3911894,0.617511013 20.4546256,0.624449339 C20.5180617,0.631387665 20.539207,0.652202643 20.539207,0.700770925 Z"/>
        <g fill="#FFF" transform="translate(20.3)">
          <path d="M0.260792952,1.33909692 C0.676651982,1.94273128 0.775330396,3.08061674 0.775330396,3.80914097 C0.775330396,3.08061674 0.874008811,1.94273128 1.28986784,1.33909692 L0.260792952,1.33909692 L0.260792952,1.33909692 Z"/>
          <ellipse cx=".775" cy=".798" rx="1" ry="1"/>
        </g>
        <path fill="url(#integration-logos-j)" d="M21.0887584,47.3818282 L21.2146843,0.922797357 C21.2146843,0.853414097 21.155425,0.797907489 21.081351,0.797907489 C21.0072769,0.797907489 20.9480176,0.853414097 20.9480176,0.922797357 L21.0739435,47.3818282 L21.0887584,47.3818282 Z"/>
      </g>
    </g>
    <g transform="translate(124 7.875)">
      <path fill="#E3E3E3" fill-rule="nonzero" d="M59.7084808,47.1513612 L4.03855488,47.1513612 C1.87992511,47.1513612 0.0621316135,45.43576 0.0621316135,43.2774231 L0.0621316135,4.09530602 C0.0621316135,1.99231104 1.82311906,0.221367894 4.03855488,0.221367894 L59.7084808,0.221367894 C61.8671105,0.221367894 63.684904,1.93696907 63.684904,4.09530602 L63.684904,43.2774231 C63.684904,45.43576 61.9239165,47.1513612 59.7084808,47.1513612 L59.7084808,47.1513612 Z"/>
      <polygon fill="#231F20" fill-rule="nonzero" points="8.015 47.151 31.817 28.501 31.987 27.505 7.447 10.294 7.39 46.321" opacity=".1"/>
      <path fill="#D54B3D" fill-rule="nonzero" d="M4.03855488,47.1513612 C1.82311906,47.1513612 0.0621316135,45.43576 0.0621316135,43.2774231 L0.0621316135,4.03996404 C0.0621316135,1.8816271 1.82311906,1.49423328 4.03855488,1.49423328 C6.2539907,1.49423328 8.01497815,1.93696907 8.01497815,4.03996404 L8.01497815,47.1513612 L4.03855488,47.1513612 L4.03855488,47.1513612 Z"/>
      <path fill="#D72B27" fill-rule="nonzero" d="M4.03855488,2.04765302 C6.87885723,2.04765302 7.4469177,2.87778261 7.4469177,4.03996404 L7.4469177,46.5979415 L4.03855488,46.5979415 C2.16395534,46.5979415 0.63019208,45.1037082 0.63019208,43.2774231 L0.63019208,4.03996404 C0.63019208,2.82244063 1.19825255,2.04765302 4.03855488,2.04765302 L4.03855488,2.04765302 Z M4.03855488,1.49423328 C1.82311906,1.49423328 0.0621316135,1.93696907 0.0621316135,4.03996404 L0.0621316135,43.2774231 C0.0621316135,45.43576 1.82311906,47.1513612 4.03855488,47.1513612 L8.01497815,47.1513612 L8.01497815,4.03996404 C8.01497815,1.8816271 6.2539907,1.49423328 4.03855488,1.49423328 L4.03855488,1.49423328 L4.03855488,1.49423328 Z"/>
      <path fill="#D54B3D" fill-rule="nonzero" d="M59.7084807,47.1513612 L55.7320575,47.1513612 L55.7320575,3.92928012 C55.7320575,1.77094315 57.4930448,1.49423328 59.7084807,1.49423328 C61.9239165,1.49423328 63.684904,1.77094315 63.684904,3.92928012 L63.684904,43.3327651 C63.684904,45.43576 61.9239165,47.1513612 59.7084807,47.1513612 L59.7084807,47.1513612 Z"/>
      <path fill="#D72B27" fill-rule="nonzero" d="M59.7084807,2.04765302 C62.2647527,2.04765302 63.1168435,2.54573078 63.1168435,3.92928012 L63.1168435,43.3327651 C63.1168435,45.1590504 61.5830803,46.6532836 59.7084807,46.6532836 L56.300118,46.6532836 L56.300118,3.92928012 C56.300118,2.4903888 57.1522085,2.04765302 59.7084807,2.04765302 L59.7084807,2.04765302 Z M59.7084807,1.49423328 C57.4930448,1.49423328 55.7320575,1.77094315 55.7320575,3.92928012 L55.7320575,47.2067032 L59.7084807,47.2067032 C61.9239165,47.2067032 63.684904,45.4911022 63.684904,43.3327651 L63.684904,3.92928012 C63.684904,1.77094315 61.9239165,1.49423328 59.7084807,1.49423328 L59.7084807,1.49423328 L59.7084807,1.49423328 Z"/>
      <path fill="url(#integration-logos-k)" fill-rule="nonzero" d="M42.6666668,47.1513612 L0.394949765,5.64923786 L2.61840373,6.53035287 L32.043936,27.172909 L63.684905,4.5692365 L63.684905,43.3327651 C63.684905,45.43576 61.9239165,47.1513612 59.7084808,47.1513612 L42.6666668,47.1513612 Z"/>
      <path fill="#D54B3D" fill-rule="nonzero" d="M31.8167117,28.5011162 L1.76631302,7.24979851 C0.00532556688,5.97693313 -0.505928855,3.5418863 0.80061022,1.82628512 C2.1071493,0.110683947 4.6634214,-0.276709866 6.4812149,0.996155522 L31.8735178,18.9822969 L57.4362388,0.774787628 C59.1972262,-0.49807776 61.6966922,-0.110683947 63.0032315,1.6602592 C64.3097705,3.37586037 63.9121282,5.8109072 62.0943348,7.08377258 L31.8167117,28.5011162 L31.8167117,28.5011162 Z"/>
      <path fill="#D72B27" fill-rule="nonzero" d="M59.7084807,0.553419734 L59.7084807,0.553419734 C60.7877955,0.553419734 61.8103045,1.05149749 62.491977,1.93696907 C63.5712917,3.43120235 63.2304555,5.47885536 61.7534982,6.58569482 L31.8167117,27.8370126 L2.1071493,6.80706273 C0.573386035,5.70022327 0.175743707,3.59722828 1.2550586,2.15833696 C1.87992511,1.32820736 2.95924,0.774787628 4.09536092,0.774787628 C4.83383955,0.774787628 5.57231815,0.996155522 6.14037863,1.43889131 L31.4758755,19.3696907 L31.8167117,19.5910586 L32.157548,19.3696907 L57.663463,1.16218144 C58.2883295,0.774787628 58.970002,0.553419734 59.7084807,0.553419734 L59.7084807,0.553419734 Z M59.7084808,0 C58.913196,0 58.0611053,0.221367894 57.3794328,0.719445654 L31.8167118,18.9269549 L6.42440885,0.940813548 C5.74273628,0.442735788 4.89064558,0.221367894 4.03855488,0.221367894 C2.78882185,0.221367894 1.53908883,0.774787628 0.743804175,1.82628512 C-0.505928855,3.5418863 0.00532556688,5.97693313 1.76631302,7.24979851 L31.8167118,28.5564581 L62.0375285,7.08377258 C63.798516,5.8109072 64.1961585,3.43120235 62.9464253,1.6602592 C62.1511408,0.553419734 60.9582138,0 59.7084808,0 L59.7084808,0 L59.7084808,0 Z"/>
    </g>
  </g>
</svg>
