<svg xmlns="http://www.w3.org/2000/svg" width="90" height="90" viewBox="0 0 90 90">
  <g fill="none" fill-rule="evenodd">
    <path fill="#FFD426" d="M46.40625,49.7280117 L46.40625,69.4565217 L50.8007813,69.4565217 L50.8007812,64.5447781 C50.8007812,63.4118205 51.4452729,62.3800479 52.4566365,61.8939045 C58.4817351,58.9977531 62.4023438,52.8469586 62.4023438,45.9782609 C62.4023438,36.2532468 54.6110491,28.3695652 45,28.3695652 C35.3889509,28.3695652 27.5976562,36.2532468 27.5976562,45.9782609 C27.5976562,52.8469586 31.5182649,58.9977531 37.5433635,61.8939045 C38.5547271,62.3800479 39.1992188,63.4118205 39.1992188,64.5447781 L39.1992188,69.4565217 L43.59375,69.4565217 L43.59375,49.7280117 L35.4944045,44.2644216 C34.8279982,43.8148827 34.6479218,42.9038244 35.0921927,42.229516 C35.5364636,41.5552076 36.4368454,41.372996 37.1032517,41.8225349 L45,47.1494586 L52.8967483,41.8225349 C53.5631546,41.372996 54.4635364,41.5552076 54.9078073,42.229516 C55.3520782,42.9038244 55.1720018,43.8148827 54.5055955,44.2644216 L46.40625,49.7280117 Z M56.6015625,66.3156389 L56.6015625,72.3913043 C56.6015625,74.01214 55.3030134,75.326087 53.7011719,75.326087 L36.2988281,75.326087 C34.6969866,75.326087 33.3984375,74.01214 33.3984375,72.3913043 L33.3984375,66.3156389 C26.3136258,62.1746748 21.796875,54.488558 21.796875,45.9782609 C21.796875,33.0115754 32.1852679,22.5 45,22.5 C57.8147321,22.5 68.203125,33.0115754 68.203125,45.9782609 C68.203125,54.488558 63.6863742,62.1746748 56.6015625,66.3156389 Z"/>
    <path fill="#8A9499" d="M50.8007812,84.1304348 L50.8007812,84.1992188 C50.8007812,87.4029018 48.203683,90 45,90 C41.796317,90 39.1992188,87.4029018 39.1992188,84.1992188 L39.1992188,84.1304348 L36.3332201,84.1304348 C34.7123844,84.1304348 33.3984375,82.8164879 33.3984375,81.1956522 C33.3984375,79.5748165 34.7123844,78.2608696 36.3332201,78.2608696 L53.6667799,78.2608696 C55.2876156,78.2608696 56.6015625,79.5748165 56.6015625,81.1956522 C56.6015625,82.8164879 55.2876156,84.1304348 53.6667799,84.1304348 L50.8007812,84.1304348 Z"/>
    <path fill="#FFF2B3" d="M13.0810475,15.664792 C12.1215159,14.7009228 12.1219276,13.1376093 13.0877745,12.1671987 L13.0674549,12.1876143 C14.0307017,11.219816 15.592299,11.2195214 16.548953,12.1805001 L22.9189525,18.5792958 C23.8784841,19.543165 23.8780724,21.1064785 22.9122255,22.0768892 L22.9325451,22.0564735 C21.9692983,23.0242718 20.407701,23.0245664 19.451047,22.0635877 L13.0810475,15.664792 Z M66.2628657,69.1909745 C65.3033341,68.2271053 65.3037458,66.6637918 66.2695927,65.6933811 L66.2492731,65.7137968 C67.2125198,64.7459985 68.7741172,64.7457038 69.7307712,65.7066825 L76.1007707,72.1054782 C77.0603022,73.0693474 77.0598905,74.6326609 76.0940436,75.6030716 L76.1143633,75.5826559 C75.1511165,76.5504542 73.5895192,76.5507489 72.6328652,75.5897702 L66.2628657,69.1909745 Z M66.6786836,21.6651493 C65.7154368,20.697351 65.7153025,19.1285346 66.6719566,18.1675559 L73.0419561,11.7687602 C74.0014876,10.804891 75.5576073,10.8054638 76.5234542,11.7758744 L76.5031346,11.7554588 C77.4663814,12.7232571 77.4665156,14.2920735 76.5098616,15.2530522 L70.1398621,21.6518479 C69.1803306,22.6157171 67.6242109,22.6151444 66.658364,21.6447337 L66.6786836,21.6651493 Z M13.4968654,75.1913318 C12.5336186,74.2235335 12.5334844,72.654717 13.4901384,71.6937384 L19.8601379,65.2949426 C20.8196694,64.3310734 22.3757891,64.3316462 23.341636,65.3020569 L23.3213164,65.2816412 C24.2845632,66.2494395 24.2846975,67.8182559 23.3280434,68.7792346 L16.9580439,75.1780303 C15.9985124,76.1418995 14.4423927,76.1413268 13.4765458,75.1709161 L13.4968654,75.1913318 Z M42.5454545,2.45448626 C42.5454545,1.09891093 43.6349409,-2.48689958e-14 45,-2.48689958e-14 C46.355608,-2.48689958e-14 47.4545455,1.09849024 47.4545455,2.45448626 L47.4545455,11.5446691 C47.4545455,12.9002445 46.3650591,13.9991554 45,13.9991554 C43.644392,13.9991554 42.5454545,12.9006652 42.5454545,11.5446691 L42.5454545,2.45448626 Z M4.4408921e-14,43.8851351 C4.4408921e-14,42.5207492 1.11472732,41.4146959 2.4706393,41.4146959 L11.4384516,41.4146959 C12.802948,41.4146959 13.9090909,42.511237 13.9090909,43.8851351 C13.9090909,45.249521 12.7943636,46.3555743 11.4384516,46.3555743 L2.4706393,46.3555743 C1.10614289,46.3555743 4.4408921e-14,45.2590333 4.4408921e-14,43.8851351 Z M76.0909091,43.8851351 C76.0909091,42.5207492 77.2056364,41.4146959 78.5615484,41.4146959 L87.5293607,41.4146959 C88.8938571,41.4146959 90,42.511237 90,43.8851351 C90,45.249521 88.8852727,46.3555743 87.5293607,46.3555743 L78.5615484,46.3555743 C77.197052,46.3555743 76.0909091,45.2590333 76.0909091,43.8851351 Z"/>
  </g>
</svg>
