<svg xmlns="http://www.w3.org/2000/svg" width="70" height="82" viewBox="0 0 70 82">
  <g fill="none" fill-rule="evenodd" transform="translate(-10 -4)">
    <path fill="#DCE2E6" d="M49.8836902,9.43562736 L75.1961902,24.6231274 C78.0552884,26.3385863 79.8046875,29.4283581 79.8046875,32.762611 L79.8046875,57.237389 C79.8046875,60.5716419 78.0552884,63.6614137 75.1961902,65.3768726 L49.6066541,80.7305943 C46.8237617,82.4003297 43.3806869,82.5325604 40.4779286,81.0811812 L15.4424647,68.5634493 C12.2266632,66.9555485 10.1953125,63.6687541 10.1953125,60.0733787 L10.1953125,32.762611 C10.1953125,29.4283581 11.9447116,26.3385863 14.8038098,24.6231274 L40.1163098,9.43562736 C43.1223184,7.6320222 46.8776816,7.6320222 49.8836902,9.43562736 Z M46.6278967,14.8619498 C45.6258939,14.2607481 44.3741061,14.2607481 43.3721033,14.8619498 L18.0596033,30.0494498 C17.1065705,30.6212694 16.5234375,31.6511934 16.5234375,32.762611 L16.5234375,60.0733787 C16.5234375,61.2718371 17.2005544,62.3674353 18.2724882,62.9034022 L43.3079522,75.4211342 C44.2755383,75.9049272 45.4232299,75.8608503 46.3508607,75.3042718 L71.9403967,59.9505502 C72.8934295,59.3787306 73.4765625,58.3488066 73.4765625,57.237389 L73.4765625,32.762611 C73.4765625,31.6511934 72.8934295,30.6212694 71.9403967,30.0494498 L46.6278967,14.8619498 Z"/>
    <path fill="#FFD426" d="M48.0371199,37.4539388 L74.4319357,37.4539388 C75.2654506,37.4539388 75.941148,38.1296361 75.941148,38.963151 C75.941148,39.3512865 75.791611,39.724501 75.5236056,40.005254 L32.1251811,85.4678958 C31.7654702,85.8447161 31.1683935,85.8585861 30.7915731,85.4988751 C30.5319452,85.2510355 30.4354766,84.8773227 30.5427068,84.534784 L40.5566301,52.5460612 L14.1618143,52.5460612 C13.3282994,52.5460612 12.652602,51.8703639 12.652602,51.036849 C12.652602,50.6487135 12.802139,50.275499 13.0701444,49.994746 L56.4685689,4.53210425 C56.8282798,4.15528386 57.4253565,4.14141394 57.8021769,4.50112491 C58.0618048,4.74896447 58.1582734,5.12267729 58.0510432,5.46521601 L48.0371199,37.4539388 Z"/>
  </g>
</svg>
