<svg xmlns="http://www.w3.org/2000/svg" width="82" height="82" viewBox="0 0 82 82">
  <g fill="#2BD9D9" fill-rule="evenodd" transform="translate(.219 .219)">
    <path d="M26.8219266,24.6373211 C29.4860482,13.845726 34.737932,6.50390625 40.78125,6.50390625 C46.8245764,6.50390625 52.0764665,13.8457466 54.7405846,24.6373664 C58.1480584,23.1170016 61.2998369,21.0387406 64.074399,18.4674197 C65.1424776,17.4775796 66.8107504,17.5410044 67.8005905,18.609083 C68.7904306,19.6771616 68.7270058,21.3454344 67.6589272,22.3352745 C64.1633037,25.5748378 60.1455621,28.1370391 55.7913869,29.9232599 C56.3169265,33.3353803 56.6015625,36.9862948 56.6015625,40.78125 C56.6015625,44.5762378 56.3169216,48.2271825 55.7913733,51.6393282 C60.4978623,53.5698806 64.8086272,56.4056441 68.4884127,60.0184704 C69.5275261,61.0386756 69.5428543,62.7080832 68.5226491,63.7471966 C67.5024439,64.78631 65.8330362,64.8016382 64.7939228,63.781433 C61.8527172,60.893747 58.4491108,58.57964 54.740572,56.9251846 C52.07645,67.7167766 46.8245669,75.0585938 40.78125,75.0585938 C34.7379307,75.0585938 29.4860458,67.7167706 26.8219248,56.9251715 C23.1707789,58.5540675 19.8148266,60.8225749 16.904199,63.6490086 C15.8594974,64.6634907 14.1901992,64.638993 13.175717,63.5942914 C12.1612349,62.5495898 12.1857326,60.8802916 13.2304342,59.8658095 C16.876503,56.3252083 21.1317993,53.5423467 25.7711236,51.6393083 C25.2455773,48.2271683 24.9609375,44.5762304 24.9609375,40.78125 C24.9609375,36.9862653 25.2455779,33.3353235 25.7711254,29.9231803 C21.0926023,28.0040841 16.8049108,25.1903907 13.1390836,21.6076975 C12.0976397,20.5898715 12.0784935,18.9205033 13.0963196,17.8790593 C14.1141456,16.8376153 15.7835138,16.8184692 16.8249578,17.8362952 C19.7535003,20.698424 23.1372849,22.9935078 26.8219266,24.6373211 Z M31.8208873,26.4146213 C34.7020179,27.1921512 37.7092617,27.5976562 40.78125,27.5976562 C43.8526763,27.5976562 46.8598728,27.1924859 49.7416523,26.4147911 C47.6822605,17.5819413 43.9738724,11.7773438 40.78125,11.7773438 C37.588648,11.7773438 33.880287,17.5818669 31.8208873,26.4146213 Z M50.7022918,31.6153479 C47.5038177,32.4413351 44.1757596,32.8710937 40.78125,32.8710937 C37.3860275,32.8710937 34.0579492,32.4410054 30.8602296,31.6151943 C30.4607128,34.480863 30.234375,37.5589407 30.234375,40.78125 C30.234375,44.003552 30.4607118,47.081623 30.8602269,49.9472862 C34.0580373,49.1214545 37.3861137,48.6914063 40.78125,48.6914063 C44.1765341,48.6914063 47.5046136,49.1215232 50.7022684,49.9473197 C51.1017864,47.081647 51.328125,44.0035646 51.328125,40.78125 C51.328125,37.5589982 51.1017952,34.480973 50.7022918,31.6153479 Z M49.7416091,55.1478943 C46.8605343,54.3703779 43.853287,53.9648438 40.78125,53.9648438 C37.7093298,53.9648438 34.702091,54.370308 31.8208823,55.1478571 C33.8802809,63.9806236 37.5886454,69.7851562 40.78125,69.7851562 C43.9738501,69.7851562 47.6822087,63.9806399 49.7416091,55.1478943 Z"/>
    <path d="M40.78125,81.5625 C63.3041125,81.5625 81.5625,63.3041125 81.5625,40.78125 C81.5625,18.2583875 63.3041125,0 40.78125,0 C18.2583875,0 0,18.2583875 0,40.78125 C0,63.3041125 18.2583875,81.5625 40.78125,81.5625 Z M40.78125,73.125 C22.9182901,73.125 8.4375,58.6442099 8.4375,40.78125 C8.4375,22.9182901 22.9182901,8.4375 40.78125,8.4375 C58.6442099,8.4375 73.125,22.9182901 73.125,40.78125 C73.125,58.6442099 58.6442099,73.125 40.78125,73.125 Z"/>
  </g>
</svg>
