<svg xmlns="http://www.w3.org/2000/svg" width="76" height="86" viewBox="0 0 76 86">
  <g fill="none" fill-rule="evenodd" transform="translate(-7 -2)">
    <path fill="#8A9499" d="M54.5002293,9.84375 L70.6560207,9.84375 C74.9374249,9.84375 76.4899655,10.2895331 78.0551829,11.1266205 C79.6204003,11.9637079 80.8487921,13.1920997 81.6858795,14.7573171 C82.5229669,16.3225345 82.96875,17.8750751 82.96875,22.1564793 L82.96875,73.4685207 C82.96875,77.7499249 82.5229669,79.3024655 81.6858795,80.8676829 C80.8487921,82.4329003 79.6204003,83.6612921 78.0551829,84.4983795 C76.4899655,85.3354669 74.9374249,85.78125 70.6560207,85.78125 L54.5002293,85.78125 C50.2188251,85.78125 48.6662845,85.3354669 47.1010671,84.4983795 C45.5358497,83.6612921 44.3074579,82.4329003 43.4703705,80.8676829 C42.6332831,79.3024655 42.1875,77.7499249 42.1875,73.4685207 L42.1875,22.1564793 C42.1875,17.8750751 42.6332831,16.3225345 43.4703705,14.7573171 C44.3074579,13.1920997 45.5358497,11.9637079 47.1010671,11.1266205 C48.6662845,10.2895331 50.2188251,9.84375 54.5002293,9.84375 Z M57.65625,12.65625 C56.8795996,12.65625 56.25,13.2858496 56.25,14.0625 C56.25,14.8391504 56.8795996,15.46875 57.65625,15.46875 L64.6875,15.46875 C65.4641504,15.46875 66.09375,14.8391504 66.09375,14.0625 C66.09375,13.2858496 65.4641504,12.65625 64.6875,12.65625 L57.65625,12.65625 Z"/>
    <path fill="#FFF" d="M53.2084862,18.28125 L70.5415138,18.28125 C73.3957833,18.28125 74.4308104,18.5784387 75.4742886,19.136497 C76.5177669,19.6945553 77.3366947,20.5134831 77.894753,21.5569614 C78.4528113,22.6004396 78.75,23.6354667 78.75,26.4897362 L78.75,69.1352638 C78.75,71.9895333 78.4528113,73.0245604 77.894753,74.0680386 C77.3366947,75.1115169 76.5177669,75.9304447 75.4742886,76.488503 C74.4308104,77.0465613 73.3957833,77.34375 70.5415138,77.34375 L53.2084862,77.34375 C50.3542167,77.34375 49.3191896,77.0465613 48.2757114,76.488503 C47.2322331,75.9304447 46.4133053,75.1115169 45.855247,74.0680386 C45.2971887,73.0245604 45,71.9895333 45,69.1352638 L45,26.4897362 C45,23.6354667 45.2971887,22.6004396 45.855247,21.5569614 C46.4133053,20.5134831 47.2322331,19.6945553 48.2757114,19.136497 C49.3191896,18.5784387 50.3542167,18.28125 53.2084862,18.28125 Z"/>
    <path fill="#333B40" d="M19.3439793,2.8125 L39.7185207,2.8125 C43.9999249,2.8125 45.5524655,3.25828307 47.1176829,4.09537049 C48.6829003,4.93245792 49.9112921,6.16084968 50.7483795,7.72606708 C51.5854669,9.29128447 52.03125,10.8438251 52.03125,15.1252293 L52.03125,74.8747707 C52.03125,79.1561749 51.5854669,80.7087155 50.7483795,82.2739329 C49.9112921,83.8391503 48.6829003,85.0675421 47.1176829,85.9046295 C45.5524655,86.7417169 43.9999249,87.1875 39.7185207,87.1875 L19.3439793,87.1875 C15.0625751,87.1875 13.5100345,86.7417169 11.9448171,85.9046295 C10.3795997,85.0675421 9.15120792,83.8391503 8.31412049,82.2739329 C7.47703307,80.7087155 7.03125,79.1561749 7.03125,74.8747707 L7.03125,15.1252293 C7.03125,10.8438251 7.47703307,9.29128447 8.31412049,7.72606708 C9.15120792,6.16084968 10.3795997,4.93245792 11.9448171,4.09537049 C13.5100345,3.25828307 15.0625751,2.8125 19.3439793,2.8125 Z"/>
    <path fill="#E6F7FF" d="M19.2143268,7.03125 L20.0258266,7.03125 C20.6166355,7.03125 21.1594129,7.35667102 21.4377874,7.87778794 L21.796875,8.55 C22.2962988,9.48492128 23.2700806,10.06875 24.3300343,10.06875 L34.7324657,10.06875 C35.7924194,10.06875 36.7662012,9.48492128 37.265625,8.55 L37.6247126,7.87778794 C37.9030871,7.35667102 38.4458645,7.03125 39.0366734,7.03125 L39.8481732,7.03125 C41.7232202,7.03125 43.0696398,7.38369724 44.2154732,8.04551948 C45.3613065,8.70734173 46.2605632,9.67853897 46.8733616,10.916039 C47.48616,12.153539 47.8125,13.6076721 47.8125,15.6327229 L47.8125,73.2339984 C47.8125,76.6189836 47.48616,77.846461 46.8733616,79.083961 C46.2605632,80.321461 45.3613065,81.2926583 44.2154732,81.9544805 C43.0696398,82.6163028 41.9330867,82.96875 38.7988411,82.96875 L20.2636589,82.96875 C17.1294133,82.96875 15.9928602,82.6163028 14.8470268,81.9544805 C13.7011935,81.2926583 12.8019368,80.321461 12.1891384,79.083961 C11.57634,77.846461 11.25,76.6189836 11.25,73.2339984 L11.25,15.6327229 C11.25,13.6076721 11.57634,12.153539 12.1891384,10.916039 C12.8019368,9.67853897 13.7011935,8.70734173 14.8470268,8.04551948 C15.9928602,7.38369724 17.3392798,7.03125 19.2143268,7.03125 Z"/>
  </g>
</svg>
