<svg xmlns="http://www.w3.org/2000/svg" width="90" height="90" viewBox="0 0 90 90">
  <g fill="none" fill-rule="evenodd">
    <path fill="#DCE2E6" d="M65.0847655,84.3219611 C64.0469178,87.6119195 60.9418747,90 57.2727273,90 C55.4374566,90 53.7433192,89.4025262 52.3784156,88.3935657 C49.9776931,88.7851037 47.5129005,88.988764 45,88.988764 C20.1471863,88.988764 0,69.0679507 0,44.494382 C0,19.9208134 20.1471863,0 45,0 C56.0660572,0 66.1991775,3.94949671 74.0362126,10.5006579 C74.8807809,10.2481235 75.7766283,10.1123596 76.7045455,10.1123596 C81.7880755,10.1123596 85.9090909,14.1870714 85.9090909,19.2134831 C85.9090909,20.8156616 85.4903842,22.3211448 84.7552623,23.6287904 C88.1030464,29.8518349 90,36.9540689 90,44.494382 C90,61.9311308 79.8560065,77.0252438 65.0847655,84.3219611 Z M49.1870527,80.6660577 C49.7922819,76.7887565 53.1818963,73.8202247 57.2727273,73.8202247 C59.5442661,73.8202247 61.5995982,74.7355153 63.0820667,76.213447 C74.267138,69.9662526 81.8181818,58.1022296 81.8181818,44.494382 C81.8181818,38.6496102 80.425143,33.1265444 77.9494422,28.232074 C77.5423224,28.2864994 77.1267536,28.3146067 76.7045455,28.3146067 C71.6210154,28.3146067 67.5,24.2398949 67.5,19.2134831 C67.5,18.1219877 67.6943265,17.0753696 68.050637,16.105608 C61.7413506,11.0907581 53.725103,8.08988764 45,8.08988764 C24.6658797,8.08988764 8.18181818,24.388735 8.18181818,44.494382 C8.18181818,64.6000291 24.6658797,80.8988764 45,80.8988764 C46.4157695,80.8988764 47.8128752,80.8198647 49.1870527,80.6660577 Z"/>
    <path fill="#8A9499" d="M45,68.90625 C58.2030573,68.90625 68.90625,58.2030573 68.90625,45 C68.90625,31.7969427 58.2030573,21.09375 45,21.09375 C31.7969427,21.09375 21.09375,31.7969427 21.09375,45 C21.09375,58.2030573 31.7969427,68.90625 45,68.90625 Z M45,60.9375 C36.1979618,60.9375 29.0625,53.8020382 29.0625,45 C29.0625,36.1979618 36.1979618,29.0625 45,29.0625 C53.8020382,29.0625 60.9375,36.1979618 60.9375,45 C60.9375,53.8020382 53.8020382,60.9375 45,60.9375 Z"/>
    <circle cx="26.016" cy="38.672" r="10.547" fill="#0AF"/>
  </g>
</svg>
