<svg xmlns="http://www.w3.org/2000/svg" width="100%" height="100%" viewBox="0 0 1894 1938">
  <g fill="#0AF" fill-rule="evenodd" transform="translate(-292 -279)">
    <path d="M1466.37189,404.448252 C2160.8236,590.840395 2284.29523,926.189033 2120.34807,1539.08189 C1956.4009,2151.97474 1682.07981,2380.55506 987.628107,2194.16292 C293.176402,2007.77078 169.704769,1672.42214 333.651933,1059.52929 C497.599098,446.636433 771.920188,218.056109 1466.37189,404.448252 Z" transform="rotate(-15 1227 1299.306)"/>
    <path d="M1487.06631,353.142665 C2181.51801,539.534808 2304.98964,874.883446 2141.04248,1487.7763 C1977.09532,2100.66915 1702.77422,2329.24948 1008.32252,2142.85733 C313.870816,1956.46519 190.399182,1621.11655 354.346347,1008.2237 C518.293511,395.330846 792.614602,166.750522 1487.06631,353.142665 Z" opacity=".1" transform="rotate(-22 1247.694 1248)"/>
  </g>
</svg>
