<svg xmlns="http://www.w3.org/2000/svg" width="100%" height="100%" viewBox="0 0 71 48">
  <path fill="#A179F2" fill-rule="evenodd" d="M5.55829112,8.63487348 C5.5140328,6.71621276 6.20587652,5.11743136 7.65595145,3.85975202 C7.78995583,3.7434882 7.99833879,3.71273057 8.17199126,3.64198803 C8.22301128,3.82468833 8.30876179,4.0052356 8.31828962,4.18978135 C8.35824506,4.96948717 7.89291792,6.66700056 7.54131009,7.68015676 C7.26746169,8.47062775 6.86852204,9.15744554 6.33004571,9.77013746 C6.1858988,9.93438318 5.92034883,9.99189994 5.71073648,10.0983213 C5.65971646,9.9159286 5.57980559,9.73568891 5.56474546,9.55022043 C5.54046485,9.24695024 5.55829112,8.9402967 5.55829112,8.63487348 Z M68.2692989,12.3873654 C68.2994191,13.0904847 67.9579538,13.9793801 67.4001145,14.7947648 C67.3036067,14.9356347 67.1591525,15.172776 67.0245334,14.7873829 C66.7285558,13.9390876 66.2905828,13.1187817 66.1402889,12.2471106 C65.9859994,11.353294 66.0803557,10.4108803 66.1203112,9.49184245 C66.1341419,9.1725783 66.2982665,8.85515959 66.4199769,8.54727576 C66.4651573,8.43378012 66.5788766,8.28337532 66.6753844,8.27230258 C66.7848008,8.25969195 66.9719766,8.35534817 67.0186937,8.45408015 C67.5679273,9.61610326 68.2692989,10.7289142 68.2692989,12.3873654 Z M8.93928888,5.364046 C8.93867458,3.49152173 9.64127554,2.15817863 11.0430966,1.07489504 C11.4657022,0.748249054 11.899987,0.436059149 12.3167529,0.101723753 C12.5982851,-0.123729646 12.6367038,0.0663524831 12.6213363,0.277042222 C12.597363,0.610454889 12.5337417,0.929719048 12.4409221,1.26343929 C11.9808199,2.91758442 11.0996489,4.26076995 9.82230439,5.37358087 C9.56320877,5.59934184 9.31794387,5.84048163 9.06622463,6.07485474 C9.00629147,5.73928904 8.94635832,5.40372334 8.93928888,5.364046 Z M65.4914433,8.40539083 C65.4914433,8.7101989 65.5461516,9.02823276 65.4754612,9.31581656 C65.4103031,9.5809473 65.2108333,9.8128598 65.0706819,10.059536 C64.8911898,9.90667056 64.6735863,9.7817946 64.5383526,9.59663369 C63.7121971,8.46383032 62.9564247,7.3018072 63.0274224,5.80329566 C63.0575427,5.16968856 62.5110753,4.61974221 62.7262199,3.94984111 C62.7548034,3.86095157 62.7796987,3.715468 62.8340996,3.70070434 C62.961957,3.66594822 63.1638856,3.63672848 63.2351907,3.70747102 C64.173836,4.63389072 65.0854347,5.56984528 65.200076,7.0077643 C65.236958,7.46974384 65.4610157,7.91695973 65.5999377,8.37063471 C65.5633631,8.38232261 65.5274032,8.39370293 65.4914433,8.40539083 Z M4.94359213,10.8687076 C5.07974795,12.0033564 4.64208227,13.3520783 4.02308038,14.6229834 C3.96130313,14.7497048 3.92042565,14.8865763 3.87002033,15.0188341 C3.7618333,14.9121051 3.65210953,14.8062989 3.54576661,14.698032 C3.0315709,14.1757675 3.16680468,13.4332785 2.92737942,12.8107441 C2.68641741,12.1839037 2.61480498,11.5029298 3.07306308,10.8308757 C3.32355292,10.4639372 3.20614541,9.85647411 3.43266199,9.45970073 C3.68991352,9.00971667 4.14694223,8.67384339 4.51668367,8.28845033 C4.65898649,8.74027986 4.84831378,9.18349725 4.9291467,9.64578437 C4.99860769,10.0422502 4.94359213,10.4602463 4.94359213,10.8687076 Z M53.9097151,0.231367147 C55.2454561,0.275658129 56.2907517,0.783158959 57.2410763,1.42076455 C57.8659179,1.83999099 58.3518374,2.47298294 58.876483,3.03215658 C59.0120242,3.17671742 59.027699,3.42862238 59.1530976,3.58886961 C59.2957077,3.77187749 59.4232578,3.87553069 59.0774896,3.95273233 C58.5534587,4.06961131 58.1274723,3.76972445 57.6735171,3.62885453 C56.3817272,3.22777508 55.2433046,2.52342544 54.1811047,1.69666045 C53.9807129,1.54071929 53.7938444,1.35555838 53.6420137,1.15286562 C53.4711274,0.925566768 53.3469582,0.663204218 53.2021966,0.41622048 C53.4797332,0.343632482 53.7569624,0.271352061 53.9097151,0.231367147 Z M3.20049018,17.851796 C3.06433435,18.672717 2.93155937,19.4945608 2.78741245,20.313944 C2.77204498,20.400988 2.68936796,20.4763442 2.6380406,20.5569292 C2.56581347,20.4846488 2.48897609,20.4160593 2.42166655,20.3391652 C1.49808131,19.2844862 1.22392555,17.9511431 0.976816558,16.6488652 C0.80408614,15.7375168 1.289391,14.8640002 1.57399663,13.9975579 C1.60565363,13.9019016 1.79989852,13.7982484 1.90808554,13.8083985 C2.00551533,13.8179333 2.11677585,13.9646472 2.17302081,14.0756822 C2.77296703,15.2552372 3.29300238,16.4572452 3.20049018,17.851796 Z M67.9523293,17.8485049 C67.871189,16.4988603 68.244004,15.2608658 68.8756072,14.0883851 C68.9358477,13.9767349 69.0418833,13.8893833 69.1264044,13.7906513 C69.2465781,13.9050697 69.3999455,13.9998032 69.4813931,14.1372898 C69.8809474,14.8121121 69.9070721,15.5979694 70.0976288,16.3352297 C70.2826532,17.0500369 69.8588183,17.669188 69.6931569,18.3169436 C69.5321057,18.9462446 69.156832,19.5241804 68.8467164,20.1091904 C68.7551262,20.2820483 68.5657989,20.4026182 68.4210373,20.5474866 C68.3666364,20.3721681 68.3445073,20.1768572 68.2519951,20.0249145 C67.8333851,19.3387119 67.9772246,18.5826895 67.9523293,17.8485049 Z M16.7294311,0.257326584 C17.2365578,0.257326584 17.3893105,0.254865973 17.5420632,0.257941736 C17.8140675,0.263478109 17.88568,0.335143378 17.6908204,0.583972573 C17.5168606,0.806350209 17.4403305,1.11331132 17.2470077,1.31077528 C15.9376988,2.64842444 14.3112053,3.43428178 12.5359546,3.94085988 C12.4080972,3.97746146 12.1471575,3.94270534 12.125643,3.88026736 C12.0730862,3.72740196 12.0687833,3.50871524 12.1434693,3.36938319 C12.8887918,1.97575515 14.02076,1.03487937 15.5319975,0.56859376 C16.0323625,0.414498053 16.5465582,0.304385751 16.7294311,0.257326584 Z M64.5678888,36.5513254 C63.8437734,36.5476345 63.8274839,36.5387147 64.2307264,35.8189863 C65.0713273,34.3192445 66.3296162,33.2657958 67.8774282,32.5675976 C68.24133,32.4036595 68.6891383,31.9395269 69.0456637,32.3436821 C69.1845857,32.5011612 68.9110446,33.1030879 68.7278643,33.4509567 C67.9717845,34.8885681 66.732244,35.819909 65.3215098,36.5371769 C65.1201959,36.6395998 64.8214522,36.5513254 64.5678888,36.5513254 Z M52.2390862,47.6213641 C50.8504812,47.6662702 49.7099072,47.3543879 48.782019,46.4375031 C48.6083666,46.2661831 48.5210793,46.1563784 48.8570123,46.0797919 C49.1784999,46.0065887 49.4812391,45.8411127 49.8042635,45.7891323 C50.1866062,45.7276171 50.5717152,45.8491097 50.9254744,45.4969349 C51.0785345,45.344377 51.6446723,45.3449922 51.791278,45.4984727 C52.1892956,45.9143159 52.6395626,45.7279246 53.0686225,45.7759065 C53.2195311,45.7928232 53.3916468,45.7340762 53.5247292,45.7860565 C54.1375841,46.025966 54.7402964,46.2929422 55.346697,46.5497684 C54.8798331,47.0028282 54.2383947,47.1061739 53.7076021,47.381147 C53.1356247,47.6776506 52.6272686,47.4728048 52.2390862,47.6213641 Z M0.422634677,26.2277127 C0.747195747,26.3122962 0.956193407,26.315372 1.10187707,26.4134888 C2.19358249,27.1452127 3.95100692,29.5842925 4.32320716,30.8705764 C4.36408465,31.0111387 4.38006682,31.2024512 4.31552343,31.3190226 C4.2414522,31.4525107 4.00848128,31.6456686 3.94055704,31.6130655 C2.42624606,30.8847249 1.22420217,29.8223565 0.656834995,28.198969 C0.453062277,27.616112 0.16353905,27.0111095 0.337806215,26.3498205 C0.359935379,26.2655446 0.444456491,26.1978778 0.422634677,26.2277127 Z M2.79214564,24.8502324 C2.79214564,25.1064435 2.80321022,25.3632696 2.78784274,25.6182504 C2.77923696,25.7597354 2.72637284,25.8984523 2.69348645,26.0387071 C2.58499207,25.9667343 2.46174493,25.9098327 2.37015477,25.820328 C1.62882778,25.0956783 0.790378352,24.4193181 0.535892967,23.3578724 C0.297389756,22.3640935 -0.409206741,21.3866162 0.324436512,20.3079462 C0.444917516,20.1307823 0.447683661,19.8730334 0.504850668,19.6525012 C0.649612282,19.7973696 0.818039807,19.9253213 0.935139966,20.0895671 C1.91312607,21.4579739 2.99714775,23.2126964 2.79214564,24.8502324 Z M68.2545768,25.1517802 C68.1811203,22.7988218 69.1910707,21.2747814 70.374059,19.8254821 C70.5409497,19.6212515 70.6654263,19.5923393 70.7198271,19.9162171 C70.8089585,20.4397119 71.0400853,20.9693582 70.9939829,21.4771666 C70.9352791,22.130151 70.6620454,22.7640657 70.482246,23.4062849 C70.2772439,24.1373937 69.8570971,24.7220962 69.2912667,25.2197546 C68.9845319,25.4898065 68.7091467,25.7955373 68.4196235,26.0852742 C68.3437082,25.6562053 68.2677928,25.2268288 68.2545768,25.1517802 Z M10.1805202,41.1649693 C8.23192441,40.940131 6.47972492,40.3972589 5.46485688,38.4881331 C5.28628682,38.1516447 5.24879018,38.0987415 5.62375657,38.0895143 C7.29573784,38.0479915 8.75995085,38.6406909 10.0265381,39.6744547 C10.4451482,40.0167871 10.9845465,40.2594648 11.2356511,40.8235596 C11.3453748,41.0696206 11.4034639,41.1532814 11.1016467,41.1628163 C10.7949119,41.1723511 10.4875624,41.1649693 10.1805202,41.1649693 Z M70.8382489,26.2784628 C70.3363472,27.2304113 70.3916701,28.2106569 69.82,29.0497249 C69.1404503,30.0471947 68.3696177,30.8924143 67.3227853,31.479885 C67.1632709,31.5693896 66.9625717,31.5976867 66.7766253,31.6262913 C66.5181443,31.6662762 66.4671243,31.6053761 66.5436544,31.3482423 C66.9539659,29.9733764 67.6301348,28.7163123 68.4931722,27.5945816 C68.9578847,26.9905018 69.6746237,26.5765042 70.3016167,26.1083731 C70.3759953,26.0530094 70.6006677,26.1981854 70.8382489,26.2784628 Z M6.48273695,36.550741 C5.57851472,36.6700806 4.86054629,36.1650403 4.26090742,35.6606153 C3.50974525,35.0294688 2.91502397,34.2030114 2.30155437,33.4223828 C2.10853888,33.1766294 2.06059236,32.8103061 1.97545655,32.4916571 C1.95855233,32.4276812 2.05844091,32.2945007 2.13589299,32.2545158 C2.21672591,32.2126854 2.34704209,32.215146 2.4358661,32.2499021 C4.30578045,32.9791654 5.8658865,34.0968976 6.87583695,35.8768414 C7.25510624,36.5442819 7.23297707,36.5596607 6.48273695,36.550741 Z M18.8311792,47.6165659 C17.7397812,47.7208343 16.881354,47.260085 16.0127843,46.8494707 C15.8913813,46.791954 15.8145439,46.6397037 15.7168068,46.5317444 C15.8508111,46.485608 15.9958801,46.4591564 16.1169758,46.3905669 C16.7525746,46.0294724 17.4130686,45.7904856 18.1596206,45.7634189 C18.4777273,45.7520386 18.7875356,45.493367 19.1047203,45.4856776 C20.1792141,45.4604563 21.1950042,45.7994054 22.2178633,46.0836058 C22.6048164,46.1909499 22.4068833,46.3545805 22.2449101,46.4486988 C21.1621178,47.0770771 20.0903901,47.7497464 18.8311792,47.6165659 Z M60.8004602,41.1649693 C60.4940327,41.1649693 60.1866832,41.1757345 59.8817925,41.1529738 C59.8381489,41.1495905 59.7496322,40.9327492 59.7782157,40.9004537 C60.7657297,39.7864125 61.8786422,38.844614 63.3351715,38.3980132 C63.6987659,38.2866706 64.0617457,38.1544128 64.4351753,38.0999718 C64.7855538,38.0492218 65.1488409,38.080287 65.5065957,38.0919749 C65.8130231,38.1018173 65.7404886,38.1919372 65.6316869,38.4315391 C65.062783,39.6833744 63.9695408,40.3262088 62.8086818,40.8337097 C62.2010518,41.0994555 61.4861569,41.1203707 60.8198232,41.2517058 C60.8133688,41.2227936 60.8069145,41.1938815 60.8004602,41.1649693 Z M62.1105989,5.32227715 C62.1105989,5.4757577 62.1222781,5.63046856 62.1059886,5.78241123 C62.0964608,5.87345381 62.0435967,5.95957516 62.0100956,6.04815712 C61.9378684,6.01124797 61.8493518,5.99002521 61.7955656,5.93496906 C60.8818156,5.00608875 59.8604932,4.16517525 59.1993844,3.02037641 C58.7835405,2.29972523 58.3928993,1.54954673 58.4217902,0.670801351 C58.4362356,0.235580942 58.5677812,0.165145978 58.9802442,0.351844769 C59.8285288,0.736007518 60.4939405,1.39145253 60.9909246,2.11118098 C61.6382027,3.04805827 62.1287325,4.11627063 62.1105989,5.32227715 Z M14.0858874,44.9709487 C12.5362312,45.0573776 11.3335726,44.342878 10.1920766,43.4807417 C10.0334842,43.3610946 9.60934192,43.2651308 10.23111,42.9587848 C10.9918,42.5838493 11.7226771,42.6699707 12.4203604,42.7477875 C13.0731708,42.8212982 13.7659365,42.915109 14.3969251,43.1211851 C15.0629514,43.3386415 15.6705814,43.7387982 16.2951156,44.0752866 C16.4242024,44.1447989 16.5145631,44.2859764 16.6227501,44.3945508 C16.4912045,44.445916 16.3633472,44.5166586 16.2265766,44.5449556 C15.5141405,44.6932073 14.7998603,44.8300788 14.0858874,44.9709487 Z M57.0405308,44.8970381 C56.2423442,44.9173382 55.4659793,44.8352153 54.7166612,44.5473239 C54.6287593,44.5137981 54.5457749,44.4679692 54.4600244,44.4279843 C54.5101224,44.3557039 54.5436235,44.251128 54.6124698,44.2160643 C55.5378991,43.743012 56.3508385,43.0835685 57.4763524,42.9709956 C58.2468776,42.8941015 59.0063382,42.6480405 59.8017587,42.700636 C60.0052241,42.7141694 60.2286671,42.6505011 60.409696,42.7150921 C60.6737092,42.8098256 60.9082169,42.9882198 61.1553259,43.1309352 C60.9970409,43.3114825 60.8710276,43.5458556 60.6749386,43.662427 C60.0230503,44.0487428 59.3742355,44.468892 58.6697905,44.7269485 C58.172499,44.9090336 57.5866909,44.8490562 57.0405308,44.8970381 Z M62.2939943,10.8789191 C63.2993345,11.3894957 64.271481,11.7219856 65.03924,12.318376 C65.837734,12.9387573 66.1979476,13.9399181 66.4072527,14.9420015 C66.4714887,15.2489626 66.2108563,15.4565766 65.9502239,15.3203203 C64.2641046,14.4403446 62.9677044,13.1645183 62.1237227,11.453164 C62.0711659,11.3461275 62.2103952,11.1443574 62.2939943,10.8789191 Z M10.5178978,7.33158059 C11.0127305,7.33158059 11.1664052,7.32696694 11.3197726,7.33250331 C11.6372647,7.34388364 11.6738392,7.33281089 11.5140175,7.72466305 C11.0797327,8.78979964 10.0919114,9.17796088 9.28757773,9.77834974 C8.63507475,10.265243 7.79109303,10.3572083 7.02886627,10.6137269 C6.97354336,10.6321814 6.79343655,10.4940797 6.80050559,10.4482508 C6.83615813,10.2141853 6.88256791,9.97212279 6.9818418,9.75897244 C7.74714205,8.11282429 9.16740408,7.50259299 10.5178978,7.33158059 Z M60.2668092,7.33158059 C62.3423404,7.5296597 63.5603664,8.56373109 64.2439117,10.3756628 C64.2672703,10.4371781 63.9789765,10.7216861 63.9101302,10.69708 C62.2538237,10.0994594 60.6331698,9.42832796 59.5233308,7.95842101 C59.4240569,7.82708594 59.4043865,7.61362802 59.4105335,7.44046258 C59.4120703,7.39955494 59.6656336,7.35249577 59.806707,7.33557908 C59.957923,7.31773965 60.1131345,7.33158059 60.2668092,7.33158059 Z M57.1930069,39.6306866 C57.0737553,41.1867149 55.9482414,42.4487003 54.6573735,43.0069512 C54.4145674,43.1118347 54.0322246,43.3148351 53.9194274,43.2222546 C53.5755033,42.9398996 54.0617302,42.7452038 54.1112135,42.4920686 C54.4127233,40.9378857 55.2702284,39.7334171 56.4230964,38.7033442 C56.6413145,38.508956 56.8128156,38.2124525 57.1662675,38.516953 C57.4253631,38.7402534 57.5744276,38.9192627 57.2034568,39.1862389 C57.1309223,39.2385269 57.1930069,39.4778212 57.1930069,39.6306866 Z M57.5795911,4.25581798 C59.2097728,4.24013159 60.48681,4.80884009 61.2942171,6.32457591 C61.4967604,6.70474017 61.4399008,6.71027654 61.114725,6.71519776 C59.6289975,6.73611294 58.2726642,6.32549864 57.0405001,5.4928897 C56.8465625,5.36186221 56.595458,5.30649848 56.4208835,5.157324 C56.2632132,5.02229802 56.1737745,4.80699464 56.0539082,4.62675495 C56.2570662,4.50310929 56.4473155,4.3176408 56.6667631,4.27119679 C56.9590524,4.20937396 57.274393,4.25581798 57.5795911,4.25581798 Z M4.79065502,15.3285634 C4.74608934,15.232292 4.61700255,15.0880387 4.6471228,14.9976113 C5.22217371,13.2902555 5.87682814,11.6493361 7.98217221,11.3205371 C8.15613203,11.2931628 8.29812749,11.0938534 8.47454611,11.0421806 C8.59349036,11.0074245 8.76068849,11.0674019 8.8793254,11.1335307 C8.93341891,11.1636732 8.9663053,11.3337629 8.93249686,11.4032751 C8.0771432,13.1647644 6.79211495,14.5005681 5.00241882,15.3261028 C4.96061929,15.3454801 4.90160819,15.3285634 4.79065502,15.3285634 Z M3.71419413,24.2233613 C3.68622533,22.5922843 4.20503128,21.2690913 5.7574536,20.4970749 C5.9698321,20.3915762 6.18190326,20.0800014 6.16407699,20.5878099 C6.09799684,22.4655629 5.48975219,24.1581551 4.3156771,25.6323681 C4.24006912,25.7274092 4.04398014,25.795076 3.92964613,25.7677017 C3.83744128,25.7458638 3.73109835,25.5637786 3.72372197,25.4472072 C3.69882666,25.0405914 3.71419413,24.631515 3.71419413,24.2233613 Z M67.3355403,24.3792409 C67.3355403,24.7363369 67.3527519,25.0949709 67.3257052,25.4499139 C67.316792,25.5664853 67.209527,25.746725 67.1176295,25.7679477 C67.0026808,25.7943993 66.8050551,25.7258098 66.732828,25.6301536 C66.0376034,24.7141915 65.441038,23.7388671 65.1899335,22.5996047 C65.0546997,21.98599 64.9600361,21.3613026 64.8850428,20.7372304 C64.8493902,20.4425723 64.7627177,20.1777492 65.3054969,20.4797891 C66.6320173,21.2182797 67.2571662,22.3018708 67.3340036,23.7668566 C67.3447608,23.9704721 67.3355403,24.1750103 67.3355403,24.3792409 Z M64.810111,25.4106979 C64.9803826,25.5177344 65.1481954,25.564486 65.2108947,25.6727529 C65.4484759,26.0818293 65.698351,26.4942891 65.8575581,26.9365837 C66.0828453,27.5612711 66.4971524,28.2859208 66.3474732,28.8361747 C66.1532283,29.5488289 66.2177717,30.39005 65.6620838,30.9965904 C65.5588144,31.1094709 65.4460171,31.2140468 65.3378301,31.3226212 C65.2865027,31.1903634 65.2468546,31.0522617 65.1823112,30.9270781 C64.8242491,30.2359543 64.589434,29.526991 64.5448684,28.7279079 C64.5156702,28.2121025 64.1597594,27.736282 64.2541157,27.1654205 C64.3331046,26.6892924 64.7003872,26.2857524 64.582365,25.7573363 C64.5633093,25.6727529 64.7142179,25.5500299 64.810111,25.4106979 Z M13.4903977,4.21543321 C13.9351324,4.26464541 14.3371456,4.27325755 14.7142634,4.37475772 C14.8129226,4.40120927 15.275791,4.60728537 14.9069716,4.88471916 C13.4169412,6.00675736 11.8024343,6.81322231 9.86643978,6.71264488 C9.77730843,6.70803123 9.69125057,6.64743871 9.60365596,6.61268259 C9.642382,6.54070975 9.67465369,6.46443083 9.72075612,6.39737921 C10.2656868,5.60260215 10.731936,4.71555221 11.8340913,4.56330196 C12.311405,3.95614642 12.9838857,4.4319669 13.4903977,4.21543321 Z M13.8645343,39.3075163 C13.8645343,39.0528431 13.8350287,38.7920184 13.8829752,38.546265 C13.896806,38.4742922 14.2050775,38.364795 14.2536387,38.409086 C14.8517409,38.9584172 15.5586447,39.4511544 15.9754106,40.121363 C16.5188045,40.9948796 16.8310716,42.0132646 17.2303186,42.9744404 C17.2585948,43.0427224 17.1836015,43.154065 17.1565547,43.2451075 C17.0843276,43.2214242 17.0127152,43.1952802 16.939566,43.1737499 C15.5168452,42.7588295 14.595104,41.7681263 13.9739507,40.4867636 C13.8104408,40.1496601 13.8657637,39.7064427 13.8205833,39.3118223 C13.8353361,39.3102844 13.8500888,39.3090541 13.8645343,39.3075163 Z M9.8611841,36.1996119 C9.8611841,35.8443613 9.83106385,35.6345943 9.86856049,35.4374379 C9.91712171,35.1830724 9.65280114,34.7518505 10.1405648,34.7300125 C10.3320435,34.7210928 10.6123463,34.9360886 10.7214554,35.1249405 C11.564515,36.5800838 12.3731516,38.0555271 12.3147552,39.8182466 C12.3101449,39.9538878 12.2308487,40.0876834 12.1862831,40.2220943 C12.078096,40.1273608 11.9450137,40.0498516 11.8663322,39.934818 C11.5752723,39.5088249 10.720226,39.6653812 10.7832326,38.8810618 C9.897144,38.1256545 9.74777214,37.1297225 9.8611841,36.1996119 Z M61.1885504,36.3807128 C61.3628175,38.0250155 60.5074639,39.2156432 59.0506273,40.0894674 C58.7647922,40.2604798 58.7322132,40.1654387 58.7309838,39.922761 C58.7239147,38.5460497 59.20338,37.2859098 59.7163463,36.0451471 C59.8783195,35.653295 60.1881278,35.3146535 60.4672011,34.9824711 C60.5803057,34.8477527 60.7920695,34.7957724 60.9589603,34.7059601 C61.0354903,34.8631316 61.1624257,35.015997 61.1781005,35.1796275 C61.2119089,35.5333402 61.1885504,35.8928969 61.1885504,36.3807128 Z M48.5271956,44.8558844 C48.4254629,44.8558844 48.3052892,44.8891027 48.2269151,44.8463496 C48.1534586,44.8057495 48.0600243,44.6393507 48.0843049,44.6061325 C49.1781618,43.0765558 50.3986467,41.6783141 52.147158,40.8610839 C52.4028727,40.7414368 52.6687301,40.9745796 52.5709929,41.2698528 C52.4093271,41.7592066 52.2046323,42.2408711 51.9618262,42.6957763 C51.3790916,43.7861342 50.3396356,44.3385412 49.2835827,44.8417359 C49.0758144,44.9401603 48.7813736,44.8558844 48.5271956,44.8558844 Z M6.48033962,27.6703684 C6.55994314,28.6115518 6.46866034,29.7148278 5.86840677,30.7276765 C5.65879441,31.0813892 5.47377001,31.1306014 5.22881246,30.8313297 C5.11079025,30.6870764 5.0185854,30.5136034 4.94635827,30.3401304 C4.23914708,28.6392336 4.73059892,27.1425676 5.76021974,25.752938 C5.86195243,25.6154514 6.08416612,25.5677771 6.25044219,25.47858 C6.32697222,25.6354439 6.46066925,25.7886169 6.46988974,25.9491717 C6.49847324,26.4557498 6.48033962,26.9650961 6.48033962,27.6703684 Z M22.018455,44.8477952 C21.5027225,44.6457176 20.7358855,44.6623267 20.2302956,44.0179544 C19.9804205,43.699613 19.6804474,43.411414 19.3672582,43.1533575 C18.9587907,42.8168691 18.8389244,42.382879 18.6781806,41.900907 C18.5669201,41.5671868 18.354849,41.2350044 18.5663054,40.9769479 C18.6520559,40.8720644 19.185922,41.0157025 19.4274987,41.1777952 C20.6529012,42.0011769 21.8875241,42.8273267 22.5839781,44.207729 C22.8738086,44.7819738 22.810802,44.8868574 22.018455,44.8477952 Z M8.6277291,34.0883162 C8.72485154,34.6948566 8.58254872,35.3450728 8.16240196,35.9276222 C7.66480312,35.5065503 7.36360061,34.9618328 7.08360522,34.3777455 C6.56910215,33.3049195 6.69818894,31.6461607 7.26463407,30.3946329 C7.31719083,30.278369 7.47455378,30.2100871 7.58304815,30.1193521 C7.62515503,30.2042432 7.66633986,30.2897494 7.70998349,30.3740253 C8.29825043,31.5065211 8.68305201,32.6916124 8.6277291,34.0883162 Z M64.3941134,32.6300356 C64.4196234,33.8317361 63.9204879,34.7636921 63.1979092,35.6042981 C63.0654416,35.7587014 62.9698559,36.2028415 62.6800253,35.5590844 C62.249736,34.6046752 62.3244219,33.6361176 62.4820922,32.7576798 C62.6250097,31.9622876 62.8155664,31.0730846 63.3383679,30.3610455 C63.3943055,30.2850742 63.4299581,30.1946468 63.4751384,30.110986 C63.5836328,30.2069498 63.7557485,30.2844591 63.790479,30.4028759 C64.0086972,31.1401362 64.1961804,31.8866238 64.3941134,32.6300356 Z M67.367935,19.6624359 C67.3292089,19.9183394 67.2855653,20.2074611 67.242229,20.4971979 C67.0270844,20.322187 66.8214676,20.1342579 66.5955657,19.9743182 C65.4500741,19.1626245 64.2581728,17.1919834 64.2621583,16.1000877 C64.2633977,15.6648673 64.4444265,15.5043124 64.7745199,15.69624 C66.2823765,16.5728324 67.3202958,17.7668434 67.367935,19.6624359 Z M3.68087745,19.4463021 C3.60035188,18.7816298 3.68886853,18.0978878 4.08811553,17.6094566 C4.71603056,16.8408236 5.41955356,16.1075618 6.32869338,15.6400458 C6.58748165,15.5071729 6.86686235,15.7301657 6.77803834,16.0300525 C6.48083138,17.0330587 6.22357985,18.0625165 5.52743323,18.8886663 C5.26464941,19.2005486 4.96191016,19.4813658 4.66070765,19.7581844 C4.38378575,20.0128576 4.08442734,20.2432322 3.79521146,20.484372 C3.75710012,20.1383487 3.71898878,19.7923254 3.68087745,19.4463021 Z M27.8012378,21.5472515 L31.5617941,25.2903778 L44.0902968,12.8199441 C45.1886463,11.7266853 46.9694228,11.7266853 48.0677724,12.8199441 C49.166122,13.9132029 49.166122,15.6857256 48.0677724,16.7789843 L31.5617941,33.2084583 L23.8237622,25.5062917 C22.7254126,24.4130329 22.7254126,22.6405102 23.8237622,21.5472515 C24.9221117,20.4539927 26.7028883,20.4539927 27.8012378,21.5472515 Z"/>
</svg>
