<svg width="80" height="61" xmlns="http://www.w3.org/2000/svg"><path d="M40 0c12.35921 0 22.44158 9.74831 22.977587 21.975409C72.56643 23.125756 80 31.289926 80 41.190299c0 10.689182-8.665295 19.354477-19.354478 19.354477H19.354478C8.665295 60.544776 0 51.879481 0 41.190298c0-9.900372 7.43357-18.064542 17.02378-19.21558C17.55842 9.748312 27.64079 0 40 0zm0 3.97015c-10.49341 0-19 8.506589-19 19V25.805l-1.615672.00097c-8.391634 0-15.214014 6.71878-15.381188 15.070388L4 41.190298c0 8.49653 6.887798 15.384329 15.384328 15.384329h41.231344C69.112202 56.574627 76 49.686828 76 41.190298S69.112202 25.80597 60.615672 25.80597L59 25.805v-2.83485C59 12.58957 50.675364 4.153315 40.3378 3.973091zm6.652797 21.230583c1.098349-1.09326 2.879126-1.09326 3.977475 0 1.09835 1.093258 1.09835 2.86578 0 3.95904L34.124294 45.589247l-7.738032-7.702167c-1.09835-1.093259-1.09835-2.865781 0-3.95904 1.09835-1.093259 2.879126-1.093259 3.977476 0l3.760556 3.743126z" fill="#0AF" fill-rule="evenodd"/></svg>