<svg xmlns="http://www.w3.org/2000/svg" viewBox="0 0 162 28" width="100%" height="100%">
  <g fill="#FA0" fill-rule="evenodd" transform="translate(-1 -2)">
    <path d="M15.6524971,24.7455868 L7.96331797,29.4421081 C7.64910426,29.6340287 7.23880137,29.5348905 7.04688083,29.2206767 C6.95506858,29.070361 6.92647362,28.8898196 6.96734216,28.7184893 L9.05791236,19.9543405 C9.11591741,19.7111701 9.03300284,19.4559852 8.84314377,19.2933507 L2.00039951,13.4318117 C1.72077485,13.1922834 1.68827032,12.7714268 1.92779862,12.4918021 C2.04238579,12.3580334 2.20525457,12.2750476 2.38082842,12.2609719 L11.362051,11.5409514 C11.6112444,11.5209737 11.8283176,11.3632608 11.9243225,11.1324373 L15.3844531,2.81328558 C15.5258493,2.47332841 15.9160632,2.31236292 16.2560204,2.45375909 C16.4186514,2.52140115 16.5479048,2.65065455 16.6155469,2.81328558 L20.0756775,11.1324373 C20.1716824,11.3632608 20.3887556,11.5209737 20.637949,11.5409514 L29.6191716,12.2609719 C29.9861839,12.2903951 30.2598539,12.6117696 30.2304307,12.9787819 C30.216355,13.1543558 30.1333692,13.3172245 29.9996005,13.4318117 L23.1568562,19.2933507 C22.9669972,19.4559852 22.8840826,19.7111701 22.9420876,19.9543405 L25.0326578,28.7184893 C25.1180877,29.076631 24.8970111,29.4362169 24.5388694,29.5216468 C24.3675392,29.5625153 24.1869977,29.5339204 24.036682,29.4421081 L16.3475029,24.7455868 C16.1341586,24.6152769 15.8658414,24.6152769 15.6524971,24.7455868 Z"/>
    <path d="M15.6524971,24.7455868 L7.96331797,29.4421081 C7.64910426,29.6340287 7.23880137,29.5348905 7.04688083,29.2206767 C6.95506858,29.070361 6.92647362,28.8898196 6.96734216,28.7184893 L9.05791236,19.9543405 C9.11591741,19.7111701 9.03300284,19.4559852 8.84314377,19.2933507 L2.00039951,13.4318117 C1.72077485,13.1922834 1.68827032,12.7714268 1.92779862,12.4918021 C2.04238579,12.3580334 2.20525457,12.2750476 2.38082842,12.2609719 L11.362051,11.5409514 C11.6112444,11.5209737 11.8283176,11.3632608 11.9243225,11.1324373 L15.3844531,2.81328558 C15.5258493,2.47332841 15.9160632,2.31236292 16.2560204,2.45375909 C16.4186514,2.52140115 16.5479048,2.65065455 16.6155469,2.81328558 L20.0756775,11.1324373 C20.1716824,11.3632608 20.3887556,11.5209737 20.637949,11.5409514 L29.6191716,12.2609719 C29.9861839,12.2903951 30.2598539,12.6117696 30.2304307,12.9787819 C30.216355,13.1543558 30.1333692,13.3172245 29.9996005,13.4318117 L23.1568562,19.2933507 C22.9669972,19.4559852 22.8840826,19.7111701 22.9420876,19.9543405 L25.0326578,28.7184893 C25.1180877,29.076631 24.8970111,29.4362169 24.5388694,29.5216468 C24.3675392,29.5625153 24.1869977,29.5339204 24.036682,29.4421081 L16.3475029,24.7455868 C16.1341586,24.6152769 15.8658414,24.6152769 15.6524971,24.7455868 Z" transform="translate(33)"/>
    <path d="M15.6524971,24.7455868 L7.96331797,29.4421081 C7.64910426,29.6340287 7.23880137,29.5348905 7.04688083,29.2206767 C6.95506858,29.070361 6.92647362,28.8898196 6.96734216,28.7184893 L9.05791236,19.9543405 C9.11591741,19.7111701 9.03300284,19.4559852 8.84314377,19.2933507 L2.00039951,13.4318117 C1.72077485,13.1922834 1.68827032,12.7714268 1.92779862,12.4918021 C2.04238579,12.3580334 2.20525457,12.2750476 2.38082842,12.2609719 L11.362051,11.5409514 C11.6112444,11.5209737 11.8283176,11.3632608 11.9243225,11.1324373 L15.3844531,2.81328558 C15.5258493,2.47332841 15.9160632,2.31236292 16.2560204,2.45375909 C16.4186514,2.52140115 16.5479048,2.65065455 16.6155469,2.81328558 L20.0756775,11.1324373 C20.1716824,11.3632608 20.3887556,11.5209737 20.637949,11.5409514 L29.6191716,12.2609719 C29.9861839,12.2903951 30.2598539,12.6117696 30.2304307,12.9787819 C30.216355,13.1543558 30.1333692,13.3172245 29.9996005,13.4318117 L23.1568562,19.2933507 C22.9669972,19.4559852 22.8840826,19.7111701 22.9420876,19.9543405 L25.0326578,28.7184893 C25.1180877,29.076631 24.8970111,29.4362169 24.5388694,29.5216468 C24.3675392,29.5625153 24.1869977,29.5339204 24.036682,29.4421081 L16.3475029,24.7455868 C16.1341586,24.6152769 15.8658414,24.6152769 15.6524971,24.7455868 Z" transform="translate(66)"/>
    <path d="M15.6524971,24.7455868 L7.96331797,29.4421081 C7.64910426,29.6340287 7.23880137,29.5348905 7.04688083,29.2206767 C6.95506858,29.070361 6.92647362,28.8898196 6.96734216,28.7184893 L9.05791236,19.9543405 C9.11591741,19.7111701 9.03300284,19.4559852 8.84314377,19.2933507 L2.00039951,13.4318117 C1.72077485,13.1922834 1.68827032,12.7714268 1.92779862,12.4918021 C2.04238579,12.3580334 2.20525457,12.2750476 2.38082842,12.2609719 L11.362051,11.5409514 C11.6112444,11.5209737 11.8283176,11.3632608 11.9243225,11.1324373 L15.3844531,2.81328558 C15.5258493,2.47332841 15.9160632,2.31236292 16.2560204,2.45375909 C16.4186514,2.52140115 16.5479048,2.65065455 16.6155469,2.81328558 L20.0756775,11.1324373 C20.1716824,11.3632608 20.3887556,11.5209737 20.637949,11.5409514 L29.6191716,12.2609719 C29.9861839,12.2903951 30.2598539,12.6117696 30.2304307,12.9787819 C30.216355,13.1543558 30.1333692,13.3172245 29.9996005,13.4318117 L23.1568562,19.2933507 C22.9669972,19.4559852 22.8840826,19.7111701 22.9420876,19.9543405 L25.0326578,28.7184893 C25.1180877,29.076631 24.8970111,29.4362169 24.5388694,29.5216468 C24.3675392,29.5625153 24.1869977,29.5339204 24.036682,29.4421081 L16.3475029,24.7455868 C16.1341586,24.6152769 15.8658414,24.6152769 15.6524971,24.7455868 Z" transform="translate(99)"/>
    <g transform="translate(133 2)">
      <path d="M13.1386355,21.2991753 C14.3039316,20.6865429 15.6960684,20.6865429 16.8613645,21.2991753 L20.8628813,23.4028972 L20.0986596,18.9471427 C19.8761078,17.6495665 20.3063018,16.3255657 21.2490461,15.406617 L24.4863412,12.2510342 L20.0125094,11.6009484 C18.7096688,11.4116346 17.5834064,10.5933571 17.0007584,9.4127832 L15,5.3588039 L12.9992416,9.4127832 C12.4165936,10.5933571 11.2903312,11.4116346 9.98749056,11.6009484 L5.51365878,12.2510342 L8.75095387,15.406617 C9.69369822,16.3255657 10.1238922,17.6495665 9.9013404,18.9471427 L9.1371187,23.4028972 L13.1386355,21.2991753 Z M14.3795452,23.6595257 L6.79108407,27.6490158 C6.46518767,27.8203497 6.0621029,27.695052 5.89076903,27.3691556 C5.82254299,27.239382 5.79899987,27.0907366 5.82378443,26.9462315 L7.27305154,18.4963559 C7.34723546,18.0638305 7.20383748,17.6224969 6.88958936,17.3161807 L0.750395373,11.3319455 C0.486739655,11.0749447 0.481344784,10.6528692 0.738345592,10.3892135 C0.840684661,10.2842244 0.974779602,10.2158996 1.11987096,10.1948166 L9.60402839,8.96199638 C10.0383086,8.89889177 10.4137294,8.6261326 10.6079454,8.23260797 L14.4021759,0.544657167 C14.5651241,0.214488061 14.9648747,0.0789287281 15.2950438,0.241876924 C15.4265189,0.30676375 15.5329372,0.413182097 15.5978241,0.544657167 L19.3920546,8.23260797 C19.5862706,8.6261326 19.9616914,8.89889177 20.3959716,8.96199638 L28.880129,10.1948166 C29.2444923,10.2477617 29.4969466,10.5860569 29.4440015,10.9504202 C29.4229185,11.0955115 29.3545937,11.2296065 29.2496046,11.3319455 L23.1104106,17.3161807 C22.7961625,17.6224969 22.6527645,18.0638305 22.7269485,18.4963559 L24.1762156,26.9462315 C24.2384562,27.3091225 23.994731,27.6537598 23.6318401,27.7160004 C23.487335,27.740785 23.3386896,27.7172419 23.2089159,27.6490158 L15.6204548,23.6595257 C15.2320228,23.4553149 14.7679772,23.4553149 14.3795452,23.6595257 Z"/>
      <polygon points="14 4 15 4 15 22 9 24 8 25 8 17 5 14 4 11 11 10"/>
    </g>
  </g>
</svg>
