<svg xmlns="http://www.w3.org/2000/svg" width="100%" height="100%" viewBox="0 0 60 60">
  <path fill="#3DCC3D" fill-rule="evenodd" d="M30,59.3333333 C13.7996473,59.3333333 0.666666667,46.2003527 0.666666667,30 C0.666666667,13.7996473 13.7996473,0.666666667 30,0.666666667 C46.2003527,0.666666667 59.3333333,13.7996473 59.3333333,30 C59.3333333,46.2003527 46.2003527,59.3333333 30,59.3333333 Z M30,55 C43.8071187,55 55,43.8071187 55,30 C55,16.1928813 43.8071187,5 30,5 C16.1928813,5 5,16.1928813 5,30 C5,43.8071187 16.1928813,55 30,55 Z M21.8012378,29.9280398 L25.5617941,33.6711662 L38.0902968,21.2007325 C39.1886463,20.1074737 40.9694228,20.1074737 42.0677724,21.2007325 C43.166122,22.2939912 43.166122,24.0665139 42.0677724,25.1597727 L25.5617941,41.5892467 L17.8237622,33.8870801 C16.7254126,32.7938213 16.7254126,31.0212986 17.8237622,29.9280398 C18.9221117,28.834781 20.7028883,28.834781 21.8012378,29.9280398 Z"/>
</svg>
