<svg xmlns="http://www.w3.org/2000/svg" viewBox="0 0 84 74" width="100%" height="100%">
  <g fill="none">
    <path fill="#003A6F" d="M42.149,10.438 L75.379,68.447 L8.92,68.449 L42.149,10.438 Z M42.149,0.417 L0.339,73.41 L83.96,73.407 L42.149,0.417 Z"/>
    <g transform="translate(25 10)">
      <path fill="#0068B4" d="M24.342,56.322 C24.863,47.76 28.458,40.033 34.078,34.256 L31.519,29.79 C24.453,36.555 19.881,45.904 19.331,56.322 L24.342,56.322 Z M58.96,23.725 L58.96,18.764 C51.67,18.764 44.845,20.739 38.975,24.169 L41.454,28.496 C46.598,25.482 52.567,23.725 58.96,23.725 L58.96,23.725 Z"/>
      <path fill="#F7AD00" d="M29.359,26.018 L26.842,21.624 C17.069,30.15 10.716,42.483 10.12,56.323 L15.079,56.323 C15.654,44.326 21.048,33.604 29.359,26.018 M58.96,14.512 L58.96,9.552 C50.004,9.552 41.617,11.971 34.398,16.175 L36.863,20.479 C43.354,16.692 50.901,14.512 58.96,14.512"/>
      <path fill="#E82000" d="M24.689,17.862 L22.178,13.479 C9.674,23.714 1.533,39.056 0.91,56.322 L5.869,56.322 C6.48,40.901 13.658,27.181 24.689,17.862 M58.96,5.299 L58.96,0.338 C48.337,0.338 38.388,3.203 29.819,8.181 L32.284,12.485 C40.127,7.924 49.234,5.299 58.96,5.299"/>
    </g>
  </g>
</svg>
