<svg xmlns="http://www.w3.org/2000/svg" viewBox="0 0 143 109" width="100%" height="100%">
  <g fill="none" fill-rule="evenodd" transform="translate(1 1)">
    <path fill="#FFF" stroke="#DCE2E6" stroke-width="1.5" d="M111.002866,38.8464082 C127.9086,40.9202616 141,55.3288416 141,72.795082 C141,91.6859366 125.685937,107 106.795082,107 L34.204918,107 C15.3140634,107 2.31346246e-15,91.6859366 0,72.795082 C-2.13899753e-15,55.3288416 13.0914001,40.9202616 29.997134,38.8464082 C30.8836698,17.2424209 48.6782433,4.00859168e-15 70.5,0 C92.3217567,-4.00859168e-15 110.11633,17.2424209 111.002866,38.8464082 Z"/>
    <g transform="translate(42 34.817)">
      <path fill="#0AF" d="M34.9962557,1.84550587 C55.2933828,7.29329293 58.9021571,17.0947145 54.1103819,35.0080756 C49.3186067,52.9214367 41.3008713,59.6022812 21.0037443,54.1544941 C0.706617186,48.7067071 -2.90215707,38.9052855 1.88961809,20.9919244 C6.68139325,3.07856335 14.6991287,-3.60228118 34.9962557,1.84550587 Z"/>
      <path fill="#FFF" d="M23.3578575,27.9570074 L23.3578575,1.84935858 C23.3578575,0.491036625 24.458995,-0.610100883 25.817317,-0.610100883 C27.1756389,-0.610100883 28.2767764,0.491036625 28.2767764,1.84935858 L28.2767764,30.4164669 C28.2767764,31.7747888 27.1756389,32.8759263 25.817317,32.8759263 L14.3187788,32.8759263 C12.9604568,32.8759263 11.8593193,31.7747888 11.8593193,30.4164669 C11.8593193,29.0581449 12.9604568,27.9570074 14.3187788,27.9570074 L23.3578575,27.9570074 Z" transform="rotate(45 13.88 31.07)"/>
    </g>
  </g>
</svg>
