<svg xmlns="http://www.w3.org/2000/svg" viewBox="0 0 133 87" width="100%" height="100%">
  <g fill="none" fill-rule="evenodd">
    <path fill="#DCE2E6" d="M107.7703,72.1337331 L117.386627,72.1337331 C119.713609,72.1337331 121.6,74.0201245 121.6,76.3471064 C121.6,78.6740882 119.713609,80.5604797 117.386627,80.5604797 L4.21337331,80.5604797 C1.88639148,80.5604797 2.84973084e-16,78.6740882 0,76.3471064 C-2.84973084e-16,74.0201245 1.88639148,72.1337331 4.21337331,72.1337331 L13.8296999,72.1337331 C13.1491225,71.3646337 12.5564001,70.5103166 12.0566888,69.5759377 C10.8016777,67.229271 10.1333333,64.9016101 10.1333333,58.4826752 L10.1333333,18.4599734 C10.1333333,12.0410385 10.8016777,9.7133776 12.0566888,7.36671093 C13.3116999,5.02004427 15.1533776,3.17836653 17.5000443,1.92335547 C19.8467109,0.6683444 22.1743718,-9.35625547e-17 28.5933068,1.61029118e-16 L93.0066932,3.44495168e-15 C99.4256282,-2.00161613e-15 101.753289,0.6683444 104.099956,1.92335547 C106.446622,3.17836653 108.2883,5.02004427 109.543311,7.36671093 C110.798322,9.7133776 111.466667,12.0410385 111.466667,18.4599734 L111.466667,58.4826752 C111.466667,64.9016101 110.798322,67.229271 109.543311,69.5759377 C109.0436,70.5103166 108.450878,71.3646337 107.7703,72.1337331 Z M93.773351,72.1337331 C98.052641,72.1337331 99.6044149,71.6881701 101.168859,70.8514961 C102.733304,70.014822 103.961089,68.7870369 104.797763,67.2225924 C105.634437,65.658148 106.08,64.106374 106.08,59.8270841 L106.08,17.1155645 C106.08,12.8362745 105.634437,11.2845006 104.797763,9.72005616 C103.961089,8.15561172 102.733304,6.92782656 101.168859,6.09115252 C99.6044149,5.25447847 98.052641,4.80891554 93.773351,4.80891554 L27.506649,4.80891554 C23.227359,4.80891554 21.6755851,5.25447847 20.1111406,6.09115252 C18.5466962,6.92782656 17.318911,8.15561172 16.482237,9.72005616 C15.6455629,11.2845006 15.2,12.8362745 15.2,17.1155645 L15.2,59.8270841 C15.2,64.106374 15.6455629,65.658148 16.482237,67.2225924 C17.318911,68.7870369 18.5466962,70.014822 20.1111406,70.8514961 C21.6755851,71.6881701 23.227359,72.1337331 27.506649,72.1337331 L93.773351,72.1337331 Z" transform="matrix(-1 0 0 1 121.6 0)"/>
    <g transform="translate(15.36 4.488)">
      <path fill="#FFF" d="M12.306649,0.317569894 L78.573351,0.317569894 C82.852641,0.317569894 84.4044149,0.763132827 85.9688594,1.59980687 C87.5333038,2.43648092 88.761089,3.66426607 89.597763,5.22871052 C90.4344371,6.79315496 90.88,8.3449289 90.88,12.6242189 L90.88,54.7005987 C90.88,58.9798886 90.4344371,60.5316626 89.597763,62.096107 C88.761089,63.6605514 87.5333038,64.8883366 85.9688594,65.7250106 C84.4044149,66.5616847 82.852641,67.0072476 78.573351,67.0072476 L12.306649,67.0072476 C8.02735901,67.0072476 6.47558507,66.5616847 4.91114062,65.7250106 C3.34669618,64.8883366 2.11891102,63.6605514 1.28223698,62.096107 C0.445562934,60.5316626 8.68851653e-18,58.9798886 -1.49536762e-17,54.7005987 L3.31468898e-16,12.6242189 C-1.92592976e-16,8.3449289 0.445562934,6.79315496 1.28223698,5.22871052 C2.11891102,3.66426607 3.34669618,2.43648092 4.91114062,1.59980687 C6.47558507,0.763132827 8.02735901,0.317569894 12.306649,0.317569894 Z"/>
      <g transform="translate(12.64 11.512)">
        <rect width="42" height="6.066" x="17" y="3.033" fill="#DCE2E6" rx="3.033"/>
        <path fill="#0AF" d="M6,11.5 C2.96243388,11.5 0.5,9.03756612 0.5,6 C0.5,2.96243388 2.96243388,0.5 6,0.5 C9.03756612,0.5 11.5,2.96243388 11.5,6 C11.5,9.03756612 9.03756612,11.5 6,11.5 Z M4.19194174,6.00649078 C3.94786406,5.76241309 3.55213594,5.76241309 3.30805826,6.00649078 C3.06398058,6.25056846 3.06398058,6.64629657 3.30805826,6.89037425 L5.02762092,8.60993691 L8.69561609,4.94194174 C8.93969377,4.69786406 8.93969377,4.30213594 8.69561609,4.05805826 C8.45153841,3.81398058 8.0558103,3.81398058 7.81173262,4.05805826 L5.02762092,6.84216996 L4.19194174,6.00649078 Z"/>
        <rect width="42" height="6.066" x="17" y="19.209" fill="#EDF1F2" rx="3.033"/>
        <path fill="#DCE2E6" d="M6,11.5 C9.03756612,11.5 11.5,9.03756612 11.5,6 C11.5,2.96243388 9.03756612,0.5 6,0.5 C2.96243388,0.5 0.5,2.96243388 0.5,6 C0.5,9.03756612 2.96243388,11.5 6,11.5 Z M6,10.75 C3.37664744,10.75 1.25,8.62335256 1.25,6 C1.25,3.37664744 3.37664744,1.25 6,1.25 C8.62335256,1.25 10.75,3.37664744 10.75,6 C10.75,8.62335256 8.62335256,10.75 6,10.75 Z" transform="translate(0 16.681)"/>
        <rect width="18" height="6.066" x="17" y="36.901" fill="#EDF1F2" rx="3.033"/>
        <path fill="#DCE2E6" d="M6,11.5 C9.03756612,11.5 11.5,9.03756612 11.5,6 C11.5,2.96243388 9.03756612,0.5 6,0.5 C2.96243388,0.5 0.5,2.96243388 0.5,6 C0.5,9.03756612 2.96243388,11.5 6,11.5 Z M6,10.75 C3.37664744,10.75 1.25,8.62335256 1.25,6 C1.25,3.37664744 3.37664744,1.25 6,1.25 C8.62335256,1.25 10.75,3.37664744 10.75,6 C10.75,8.62335256 8.62335256,10.75 6,10.75 Z" transform="translate(0 33.868)"/>
      </g>
    </g>
    <g transform="translate(96.6 16.227)">
      <path fill="#DCE2E6" d="M10.5068624,5.1116628e-13 L25.8931376,5.1201526e-13 C29.5466026,5.11344129e-13 30.8714373,0.380401556 32.2070894,1.09471616 C33.5427416,1.80903075 34.5909692,2.8572584 35.3052838,4.19291057 C36.0195984,5.52856275 36.4,6.85339741 36.4,10.5068624 L36.4,59.6268707 C36.4,63.2803356 36.0195984,64.6051703 35.3052838,65.9408225 C34.5909692,67.2764747 33.5427416,68.3247023 32.2070894,69.0390169 C30.8714373,69.7533315 29.5466026,70.1337331 25.8931376,70.1337331 L10.5068624,70.1337331 C6.85339741,70.1337331 5.52856275,69.7533315 4.19291057,69.0390169 C2.8572584,68.3247023 1.80903075,67.2764747 1.09471616,65.9408225 C0.380401556,64.6051703 7.28997628e-13,63.2803356 7.27116477e-13,59.6268707 L7.27682463e-13,10.5068624 C7.28668774e-13,6.85339741 0.380401556,5.52856275 1.09471616,4.19291057 C1.80903075,2.8572584 2.8572584,1.80903075 4.19291057,1.09471616 C5.52856275,0.380401556 6.85339741,5.11837411e-13 10.5068624,5.1116628e-13 Z"/>
      <path fill="#FFF" d="M9.39622551,2.60668665 L10.0879894,2.60668665 C10.5925243,2.60668665 11.0559773,2.88479175 11.2933584,3.32999462 L11.6,3.90509385 C12.0261219,4.70427571 12.8580645,5.20350104 13.763753,5.20350104 L22.636247,5.20350104 C23.5419355,5.20350104 24.3738781,4.70427571 24.8,3.90509385 L25.1066416,3.32999462 C25.3440227,2.88479175 25.8074757,2.60668665 26.3120106,2.60668665 L27.0037745,2.60668665 C28.6038146,2.60668665 29.7527593,2.90800026 30.7305371,3.47380421 C31.7083149,4.03960817 32.4756806,4.86990248 32.9986019,5.9278639 C33.5215232,6.98582532 33.8,8.22899041 33.8,9.9602434 L33.8,59.2046289 C33.8,62.0985148 33.5215232,63.1479077 32.9986019,64.2058692 C32.4756806,65.2638306 31.7083149,66.0941249 30.7305371,66.6599288 C29.7527593,67.2257328 28.7829006,67.5270464 26.1083444,67.5270464 L10.2916556,67.5270464 C7.61709938,67.5270464 6.64724067,67.2257328 5.66946289,66.6599288 C4.69168511,66.0941249 3.92431939,65.2638306 3.40139811,64.2058692 C2.87847683,63.1479077 2.6,62.0985148 2.6,59.2046289 L2.6,9.9602434 C2.6,8.22899041 2.87847683,6.98582532 3.40139811,5.9278639 C3.92431939,4.86990248 4.69168511,4.03960817 5.66946289,3.47380421 C6.64724067,2.90800026 7.7961854,2.60668665 9.39622551,2.60668665 Z"/>
      <path fill="#0AF" d="M6,11.5 C2.96243388,11.5 0.5,9.03756612 0.5,6 C0.5,2.96243388 2.96243388,0.5 6,0.5 C9.03756612,0.5 11.5,2.96243388 11.5,6 C11.5,9.03756612 9.03756612,11.5 6,11.5 Z M4.19194174,6.00649078 C3.94786406,5.76241309 3.55213594,5.76241309 3.30805826,6.00649078 C3.06398058,6.25056846 3.06398058,6.64629657 3.30805826,6.89037425 L5.02762092,8.60993691 L8.69561609,4.94194174 C8.93969377,4.69786406 8.93969377,4.30213594 8.69561609,4.05805826 C8.45153841,3.81398058 8.0558103,3.81398058 7.81173262,4.05805826 L5.02762092,6.84216996 L4.19194174,6.00649078 Z" transform="translate(12.4 13.772)"/>
      <path fill="#DCE2E6" d="M6,11.5 C9.03756612,11.5 11.5,9.03756612 11.5,6 C11.5,2.96243388 9.03756612,0.5 6,0.5 C2.96243388,0.5 0.5,2.96243388 0.5,6 C0.5,9.03756612 2.96243388,11.5 6,11.5 Z M6,10.75 C3.37664744,10.75 1.25,8.62335256 1.25,6 C1.25,3.37664744 3.37664744,1.25 6,1.25 C8.62335256,1.25 10.75,3.37664744 10.75,6 C10.75,8.62335256 8.62335256,10.75 6,10.75 Z" transform="translate(12.4 30.453)"/>
      <path fill="#DCE2E6" d="M6,11.5 C9.03756612,11.5 11.5,9.03756612 11.5,6 C11.5,2.96243388 9.03756612,0.5 6,0.5 C2.96243388,0.5 0.5,2.96243388 0.5,6 C0.5,9.03756612 2.96243388,11.5 6,11.5 Z M6,10.75 C3.37664744,10.75 1.25,8.62335256 1.25,6 C1.25,3.37664744 3.37664744,1.25 6,1.25 C8.62335256,1.25 10.75,3.37664744 10.75,6 C10.75,8.62335256 8.62335256,10.75 6,10.75 Z" transform="translate(12.4 47.453)"/>
    </g>
  </g>
</svg>
