<svg xmlns="http://www.w3.org/2000/svg" viewBox="0 0 270 89" width="100%" height="100%">
  <g fill="none" fill-rule="evenodd" transform="translate(0 -29)">
    <rect width="150" height="149.572" x="60"/>
    <g transform="translate(0 15)">
      <g transform="rotate(15 -64.852 607.942)">
        <path fill="#F7F9FA" stroke="#DCE2E6" stroke-width="1.5" d="M12.1473858,4.14550461 C9.82215934,4.14550461 8.86659714,4.33003219 7.87889205,4.85826265 C7.03181559,5.3112841 6.37150939,5.9715903 5.91848794,6.81866675 C5.39025748,7.80637185 5.20572991,8.76193405 5.20572991,11.0871605 L5.20572991,38.3160953 C5.20572991,40.6413217 5.39025748,41.5968839 5.91848794,42.584589 C6.37150939,43.4316655 7.03181559,44.0919717 7.87889205,44.5449931 C8.86659714,45.0732236 9.82215934,45.2577511 12.1473858,45.2577511 L32.2742795,45.2577511 C34.5995059,45.2577511 35.5550681,45.0732236 36.5427732,44.5449931 C37.3898497,44.0919717 38.0501559,43.4316655 38.5031773,42.584589 C39.0314078,41.5968839 39.2159353,40.6413217 39.2159353,38.3160953 L39.2159353,11.0871605 C39.2159353,8.76193405 39.0314078,7.80637185 38.5031773,6.81866675 C38.0501559,5.9715903 37.3898497,5.3112841 36.5427732,4.85826265 C35.5550681,4.33003219 34.5995059,4.14550461 32.2742795,4.14550461 L12.1473858,4.14550461 Z" transform="rotate(-10 22.21 24.702)"/>
        <path fill="#FFF" stroke="#DCE2E6" stroke-width="1.5" d="M7.69165591,6.96428599 C5.36642947,6.96428599 4.41086726,7.14881357 3.42316217,7.67704403 C2.57608571,8.13006548 1.91577951,8.79037167 1.46275807,9.63744813 C0.934527604,10.6251532 0.75000003,11.5807154 0.75000003,13.9059419 L0.75000003,41.1348766 C0.75000003,43.4601031 0.934527604,44.4156653 1.46275807,45.4033704 C1.91577951,46.2504468 2.57608571,46.910753 3.42316217,47.3637745 C4.41086726,47.8920049 5.36642947,48.0765325 7.69165591,48.0765325 L27.8185496,48.0765325 C30.143776,48.0765325 31.0993382,47.8920049 32.0870433,47.3637745 C32.9341198,46.910753 33.594426,46.2504468 34.0474474,45.4033704 C34.5756779,44.4156653 34.7602055,43.4601031 34.7602055,41.1348766 L34.7602055,13.9059419 C34.7602055,11.5807154 34.5756779,10.6251532 34.0474474,9.63744813 C33.594426,8.79037167 32.9341198,8.13006548 32.0870433,7.67704403 C31.0993382,7.14881357 30.143776,6.96428599 27.8185496,6.96428599 L7.69165591,6.96428599 Z"/>
        <g transform="translate(7.102 16.867)">
          <path fill="#FA0" d="M5.32653082 9.76530651C2.8750627 9.76530651.887755137 7.77799894.887755137 5.32653082.887755137 2.8750627 2.8750627.887755137 5.32653082.887755137 7.77799894.887755137 9.76530651 2.8750627 9.76530651 5.32653082 9.76530651 7.77799894 7.77799894 9.76530651 5.32653082 9.76530651zM4.40178589 5.9754856L3.57794624 5.15164594C3.31792878 4.89162849 2.89635718 4.89162849 2.63633972 5.15164594 2.37632226 5.4116634 2.37632226 5.833235 2.63633972 6.09325246L4.40178589 7.85869863 8.01672193 4.24376259C8.27673939 3.98374513 8.27673939 3.56217354 8.01672193 3.30215608 7.75670447 3.04213862 7.33513287 3.04213862 7.07511541 3.30215608L4.40178589 5.9754856zM11.5408168 5.32653082C11.5408168 4.8362372 11.9453352 4.43877569 12.4244861 4.43877569L19.5346989 4.43877569C20.0227359 4.43877569 20.4183682 4.83281896 20.4183682 5.32653082L20.4183682 5.32653082C20.4183682 5.81682445 20.0138497 6.21428596 19.5346989 6.21428596L12.4244861 6.21428596C11.936449 6.21428596 11.5408168 5.82024268 11.5408168 5.32653082L11.5408168 5.32653082z"/>
          <circle cx="5.327" cy="15.98" r="3.314" stroke="#FA0" stroke-width="2.25" opacity=".5"/>
          <path fill="#FA0" d="M11.5408168,15.9795925 C11.5408168,15.4892988 11.9453352,15.0918373 12.4244861,15.0918373 L19.5346989,15.0918373 C20.0227359,15.0918373 20.4183682,15.4858806 20.4183682,15.9795925 L20.4183682,15.9795925 C20.4183682,16.4698861 20.0138497,16.8673476 19.5346989,16.8673476 L12.4244861,16.8673476 C11.936449,16.8673476 11.5408168,16.4733043 11.5408168,15.9795925 L11.5408168,15.9795925 Z" opacity=".5"/>
        </g>
      </g>
      <g transform="rotate(-15 132.956 -224.007)">
        <path fill="#F7F9FA" stroke="#DCE2E6" stroke-width="1.5" d="M15.5859234,6.07396262 C12.6510845,6.07396262 11.4273897,6.31026898 10.1618814,6.98707019 C9.07036052,7.57082196 8.21821288,8.4229696 7.63446111,9.51449051 C6.9576599,10.7799987 6.72135353,12.0036935 6.72135353,14.9385325 L6.72135353,67.7093927 C6.72135353,70.6442316 6.9576599,71.8679264 7.63446111,73.1334347 C8.21821288,74.2249556 9.07036052,75.0771032 10.1618814,75.660855 C11.4273897,76.3376562 12.6510845,76.5739626 15.5859234,76.5739626 L56.3567836,76.5739626 C59.2916226,76.5739626 60.5153174,76.3376562 61.7808256,75.660855 C62.8723465,75.0771032 63.7244941,74.2249556 64.3082459,73.1334347 C64.9850471,71.8679264 65.2213535,70.6442316 65.2213535,67.7093927 L65.2213535,14.9385325 C65.2213535,12.0036935 64.9850471,10.7799987 64.3082459,9.51449051 C63.7244941,8.4229696 62.8723465,7.57082196 61.7808256,6.98707019 C60.5153174,6.31026898 59.2916226,6.07396262 56.3567836,6.07396262 L15.5859234,6.07396262 Z" transform="rotate(-10 35.971 41.324)"/>
        <path fill="#FFF" stroke="#DCE2E6" stroke-width="1.5" d="M23.1145704,12.7500005 C20.1797315,12.7500005 18.9560367,12.9863069 17.6905285,13.6631081 C16.5990075,14.2468599 15.7468599,15.0990075 15.1631081,16.1905284 C14.4863069,17.4560366 14.2500006,18.6797314 14.2500006,21.6145704 L14.2500006,74.3854306 C14.2500006,77.3202695 14.4863069,78.5439643 15.1631081,79.8094726 C15.7468599,80.9009935 16.5990075,81.7531411 17.6905285,82.3368929 C18.9560367,83.0136941 20.1797315,83.2500004 23.1145704,83.2500004 L63.8854307,83.2500004 C66.8202696,83.2500004 68.0439644,83.0136941 69.3094726,82.3368929 C70.4009935,81.7531411 71.2531412,80.9009935 71.8368929,79.8094726 C72.5136941,78.5439643 72.7500005,77.3202695 72.7500005,74.3854306 L72.7500005,21.6145704 C72.7500005,18.6797314 72.5136941,17.4560366 71.8368929,16.1905284 C71.2531412,15.0990075 70.4009935,14.2468599 69.3094726,13.6631081 C68.0439644,12.9863069 66.8202696,12.7500005 63.8854307,12.7500005 L23.1145704,12.7500005 Z"/>
        <g transform="translate(25.5 30)">
          <path fill="#96DB0B" d="M9.00000036,16.5000007 C4.85786457,16.5000007 1.50000006,13.1421361 1.50000006,9.00000036 C1.50000006,4.85786457 4.85786457,1.50000006 9.00000036,1.50000006 C13.1421361,1.50000006 16.5000007,4.85786457 16.5000007,9.00000036 C16.5000007,13.1421361 13.1421361,16.5000007 9.00000036,16.5000007 Z M7.4375003,10.0965101 L6.04549537,8.70450522 C5.60615552,8.26516537 4.89384489,8.26516537 4.45450505,8.70450522 C4.0151652,9.14384506 4.0151652,9.85615569 4.45450505,10.2954955 L7.4375003,13.2784908 L13.5454957,7.17049541 C13.9848355,6.73115557 13.9848355,6.01884494 13.5454957,5.57950509 C13.1061558,5.14016525 12.3938452,5.14016525 11.9545053,5.57950509 L7.4375003,10.0965101 Z M19.5000008,9.00000036 C19.5000008,8.1715732 20.1638866,7.5000003 20.9930972,7.5000003 L33.006905,7.5000003 C33.8315193,7.5000003 34.5000014,8.16579756 34.5000014,9.00000036 C34.5000014,9.82842752 33.8361155,10.5000004 33.006905,10.5000004 L20.9930972,10.5000004 C20.1684828,10.5000004 19.5000008,9.83420316 19.5000008,9.00000036 Z"/>
          <path fill="#8A9499" d="M7.5,15 C3.35786451,15 0,11.6421361 0,7.5 C0,3.35786451 3.35786451,0 7.5,0 C11.6421361,0 15,3.35786451 15,7.5 C15,11.6421361 11.6421361,15 7.5,15 Z M7.5000003,12.7500001 C10.3994953,12.7500001 12.7500001,10.3994953 12.7500001,7.5000003 C12.7500001,4.60050525 10.3994953,2.25000009 7.5000003,2.25000009 C4.60050525,2.25000009 2.25000009,4.60050525 2.25000009,7.5000003 C2.25000009,10.3994953 4.60050525,12.7500001 7.5000003,12.7500001 Z M18.0000007,7.5000003 C18.0000007,6.67157314 18.6638866,6.00000024 19.4930971,6.00000024 L31.5069049,6.00000024 C32.3315193,6.00000024 33.0000013,6.6657975 33.0000013,7.5000003 C33.0000013,8.32842746 32.3361154,9.00000036 31.5069049,9.00000036 L19.4930971,9.00000036 C18.6684827,9.00000036 18.0000007,8.3342031 18.0000007,7.5000003 Z" opacity=".504" transform="translate(1.5 19.5)"/>
        </g>
      </g>
      <path fill="#8A9499" d="M10.5000004,20.1250008 C5.18425949,20.1250008 0.875000035,15.8157413 0.875000035,10.5000004 C0.875000035,5.18425949 5.18425949,0.875000035 10.5000004,0.875000035 C15.8157413,0.875000035 20.1250008,5.18425949 20.1250008,10.5000004 C20.1250008,15.8157413 15.8157413,20.1250008 10.5000004,20.1250008 Z M7.33589833,10.5113593 C6.90876237,10.0842233 6.21623815,10.0842233 5.78910219,10.5113593 C5.36196623,10.9384952 5.36196623,11.6310195 5.78910219,12.0581554 L8.79833696,15.0673902 L15.2173288,8.64839839 C15.6444647,8.22126242 15.6444647,7.5287382 15.2173288,7.10160224 C14.7901928,6.67446628 14.0976686,6.67446628 13.6705326,7.10160224 L8.79833696,11.9737979 L7.33589833,10.5113593 Z" opacity=".5" transform="rotate(15 44.75 780.122)"/>
      <path fill="#8A9499" d="M18.0000007,34.5000014 C8.88730198,34.5000014 1.50000006,27.1126994 1.50000006,18.0000007 C1.50000006,8.88730198 8.88730198,1.50000006 18.0000007,1.50000006 C27.1126994,1.50000006 34.5000014,8.88730198 34.5000014,18.0000007 C34.5000014,27.1126994 27.1126994,34.5000014 18.0000007,34.5000014 Z M12.5758257,18.019473 C11.8435926,17.28724 10.6564083,17.28724 9.92417518,18.019473 C9.1919421,18.7517061 9.1919421,19.9388905 9.92417518,20.6711236 L15.0828634,25.8298118 L26.0868493,14.8258258 C26.8190824,14.0935927 26.8190824,12.9064083 26.0868493,12.1741753 C25.3546162,11.4419422 24.1674319,11.4419422 23.4351988,12.1741753 L15.0828634,20.5265107 L12.5758257,18.019473 Z" opacity=".5" transform="rotate(-15 280.66 -40.15)"/>
      <path fill="#8A9499" d="M10.5000004,20.1250008 C15.8157413,20.1250008 20.1250008,15.8157413 20.1250008,10.5000004 C20.1250008,5.18425949 15.8157413,0.875000035 10.5000004,0.875000035 C5.18425949,0.875000035 0.875000035,5.18425949 0.875000035,10.5000004 C0.875000035,15.8157413 5.18425949,20.1250008 10.5000004,20.1250008 Z M10.5000004,18.8125007 C5.90913325,18.8125007 2.18750009,15.0908676 2.18750009,10.5000004 C2.18750009,5.90913325 5.90913325,2.18750009 10.5000004,2.18750009 C15.0908676,2.18750009 18.8125007,5.90913325 18.8125007,10.5000004 C18.8125007,15.0908676 15.0908676,18.8125007 10.5000004,18.8125007 Z" opacity=".5" transform="translate(30 16.5)"/>
      <path fill="#8A9499" d="M9.00000036,17.25 C13.5563497,17.25 17.25,13.5563497 17.25,9.00000036 C17.25,4.44365099 13.5563497,0.75000003 9.00000036,0.75000003 C4.44365099,0.75000003 0.75000003,4.44365099 0.75000003,9.00000036 C0.75000003,13.5563497 4.44365099,17.25 9.00000036,17.25 Z M9.00000036,16.1250006 C5.06497136,16.1250006 1.87500007,12.9350294 1.87500007,9.00000036 C1.87500007,5.06497136 5.06497136,1.87500007 9.00000036,1.87500007 C12.9350294,1.87500007 16.1250006,5.06497136 16.1250006,9.00000036 C16.1250006,12.9350294 12.9350294,16.1250006 9.00000036,16.1250006 Z" opacity=".3" transform="translate(0 48)"/>
      <path fill="#8A9499" d="M9.00000036,17.25 C13.5563497,17.25 17.25,13.5563497 17.25,9.00000036 C17.25,4.44365099 13.5563497,0.75000003 9.00000036,0.75000003 C4.44365099,0.75000003 0.75000003,4.44365099 0.75000003,9.00000036 C0.75000003,13.5563497 4.44365099,17.25 9.00000036,17.25 Z M9.00000036,16.1250006 C5.06497136,16.1250006 1.87500007,12.9350294 1.87500007,9.00000036 C1.87500007,5.06497136 5.06497136,1.87500007 9.00000036,1.87500007 C12.9350294,1.87500007 16.1250006,5.06497136 16.1250006,9.00000036 C16.1250006,12.9350294 12.9350294,16.1250006 9.00000036,16.1250006 Z" opacity=".3" transform="translate(252 37.5)"/>
      <path fill="#8A9499" d="M18.0000001,34.5000001 C27.1126994,34.5000001 34.5000001,27.1126994 34.5000001,18.0000001 C34.5000001,8.88730198 27.1126994,1.50000006 18.0000001,1.50000006 C8.88730198,1.50000006 1.50000006,8.88730198 1.50000006,18.0000001 C1.50000006,27.1126994 8.88730198,34.5000001 18.0000001,34.5000001 Z M18.0000007,32.2500001 C10.1299427,32.2500001 3.75000015,25.8700587 3.75000015,18.0000007 C3.75000015,10.1299427 10.1299427,3.75000015 18.0000007,3.75000015 C25.8700587,3.75000015 32.2500001,10.1299427 32.2500001,18.0000007 C32.2500001,25.8700587 25.8700587,32.2500001 18.0000007,32.2500001 Z" opacity=".5" transform="translate(208.5 66)"/>
    </g>
  </g>
</svg>
