<svg xmlns="http://www.w3.org/2000/svg" viewBox="0 0 299 120" width="100%" height="100%">
  <g fill="none" fill-rule="evenodd">
    <path fill="#F7F9FA" d="M3,0 L96,0 C97.6568542,-3.04359188e-16 99,1.34314575 99,3 L99,120 L5,120 C2.23857625,120 3.38176876e-16,117.761424 0,115 L0,3 C-2.02906125e-16,1.34314575 1.34314575,3.04359188e-16 3,0 Z"/>
    <path fill="#FA0" d="M5,0 L99,0 L99,16.9333333 L0,16.9333333 L0,5 C-3.38176876e-16,2.23857625 2.23857625,5.07265313e-16 5,0 Z"/>
    <g transform="translate(200)">
      <path fill="#F7F9FA" d="M3,0 L96,0 C97.6568542,-3.04359188e-16 99,1.34314575 99,3 L99,115 C99,117.761424 96.7614237,120 94,120 L0,120 L0,3 C-2.02906125e-16,1.34314575 1.34314575,3.04359188e-16 3,0 Z"/>
      <path fill="#2BD9D9" d="M0,0 L94,0 C96.7614237,-5.07265313e-16 99,2.23857625 99,5 L99,16.9333333 L0,16.9333333 L0,0 Z"/>
    </g>
    <g transform="translate(100)">
      <path fill="#F7F9FA" d="M3,0 L96,0 C97.6568542,-3.04359188e-16 99,1.34314575 99,3 L99,120 L0,120 L0,3 C-2.02906125e-16,1.34314575 1.34314575,3.04359188e-16 3,0 Z"/>
      <rect width="99" height="16.933" fill="#A179F2"/>
    </g>
    <g transform="translate(6 25)">
      <path fill="#FFF" stroke="#DCE2E6" stroke-width="1.5" d="M12.819426,-2.33158843e-15 L76.180574,4.61939267e-15 C80.6381677,-2.68400017e-15 82.2545989,0.464128056 83.8842285,1.33566352 C85.5138581,2.20719898 86.792801,3.48614185 87.6643365,5.11577148 C88.5358719,6.74540111 89,8.3618323 89,12.819426 L89,63.0090164 C89,67.4666101 88.5358719,69.0830413 87.6643365,70.712671 C86.792801,72.3423006 85.5138581,73.6212435 83.8842285,74.4927789 C82.2545989,75.3643144 80.6381677,75.8284424 76.180574,75.8284424 L12.819426,75.8284424 C8.3618323,75.8284424 6.74540111,75.3643144 5.11577148,74.4927789 C3.48614185,73.6212435 2.20719898,72.3423006 1.33566352,70.712671 C0.464128056,69.0830413 2.00617683e-16,67.4666101 -3.45280103e-16,63.0090164 L3.45280103e-16,12.819426 C-2.00617683e-16,8.3618323 0.464128056,6.74540111 1.33566352,5.11577148 C2.20719898,3.48614185 3.48614185,2.20719898 5.11577148,1.33566352 C6.74540111,0.464128056 8.3618323,1.35472002e-15 12.819426,-2.33158843e-15 Z"/>
      <path fill="#DCE2E6" d="M8,15.3333333 C3.94991183,15.3333333 0.666666667,12.0500882 0.666666667,8 C0.666666667,3.94991183 3.94991183,0.666666667 8,0.666666667 C12.0500882,0.666666667 15.3333333,3.94991183 15.3333333,8 C15.3333333,12.0500882 12.0500882,15.3333333 8,15.3333333 Z M8,14 C11.3137085,14 14,11.3137085 14,8 C14,4.6862915 11.3137085,2 8,2 C4.6862915,2 2,4.6862915 2,8 C2,11.3137085 4.6862915,14 8,14 Z M5.66666667,7.33333333 C5.11438192,7.33333333 4.66666667,6.88561808 4.66666667,6.33333333 C4.66666667,5.78104858 5.11438192,5.33333333 5.66666667,5.33333333 C6.21895142,5.33333333 6.66666667,5.78104858 6.66666667,6.33333333 C6.66666667,6.88561808 6.21895142,7.33333333 5.66666667,7.33333333 Z M10.3333333,7.33333333 C9.78104858,7.33333333 9.33333333,6.88561808 9.33333333,6.33333333 C9.33333333,5.78104858 9.78104858,5.33333333 10.3333333,5.33333333 C10.8856181,5.33333333 11.3333333,5.78104858 11.3333333,6.33333333 C11.3333333,6.88561808 10.8856181,7.33333333 10.3333333,7.33333333 Z M10.6666667,9.33333333 C10.6666667,9.33333333 10.6666667,9.33333333 10.6666667,9.33333333 C10.6666667,10.8060927 9.47275933,12 8,12 C6.52724067,12 5.33333333,10.8060927 5.33333333,9.33333333 C5.33333333,9.33333333 5.33333333,9.33333333 5.33333333,9.33333333 C5.33333334,8.9651435 5.63181017,8.66666667 6,8.66666667 L10.0000303,8.66666667 C10.3682034,8.666697 10.6666667,8.96516025 10.6666667,9.33333333 Z" transform="translate(65 4.989)"/>
      <rect width="20" height="5.986" x="10" y="9.977" fill="#DCE2E6" rx="2.993"/>
      <rect width="69" height="5.986" x="10" y="24.944" fill="#EDF1F2" rx="2.993"/>
      <rect width="59" height="5.986" x="10" y="34.921" fill="#EDF1F2" rx="2.993"/>
      <rect width="49" height="5.986" x="10" y="44.898" fill="#EDF1F2" rx="2.993"/>
    </g>
    <g transform="translate(204 25)">
      <path fill="#FFF" stroke="#DCE2E6" stroke-width="1.5" d="M12.819426,-2.33158843e-15 L76.180574,4.61939267e-15 C80.6381677,-2.68400017e-15 82.2545989,0.464128056 83.8842285,1.33566352 C85.5138581,2.20719898 86.792801,3.48614185 87.6643365,5.11577148 C88.5358719,6.74540111 89,8.3618323 89,12.819426 L89,63.0090164 C89,67.4666101 88.5358719,69.0830413 87.6643365,70.712671 C86.792801,72.3423006 85.5138581,73.6212435 83.8842285,74.4927789 C82.2545989,75.3643144 80.6381677,75.8284424 76.180574,75.8284424 L12.819426,75.8284424 C8.3618323,75.8284424 6.74540111,75.3643144 5.11577148,74.4927789 C3.48614185,73.6212435 2.20719898,72.3423006 1.33566352,70.712671 C0.464128056,69.0830413 2.00617683e-16,67.4666101 -3.45280103e-16,63.0090164 L3.45280103e-16,12.819426 C-2.00617683e-16,8.3618323 0.464128056,6.74540111 1.33566352,5.11577148 C2.20719898,3.48614185 3.48614185,2.20719898 5.11577148,1.33566352 C6.74540111,0.464128056 8.3618323,1.35472002e-15 12.819426,-2.33158843e-15 Z"/>
      <path fill="#DCE2E6" d="M8,15.3333333 C3.94991183,15.3333333 0.666666667,12.0500882 0.666666667,8 C0.666666667,3.94991183 3.94991183,0.666666667 8,0.666666667 C12.0500882,0.666666667 15.3333333,3.94991183 15.3333333,8 C15.3333333,12.0500882 12.0500882,15.3333333 8,15.3333333 Z M8,14 C11.3137085,14 14,11.3137085 14,8 C14,4.6862915 11.3137085,2 8,2 C4.6862915,2 2,4.6862915 2,8 C2,11.3137085 4.6862915,14 8,14 Z M5.66666667,7.33333333 C5.11438192,7.33333333 4.66666667,6.88561808 4.66666667,6.33333333 C4.66666667,5.78104858 5.11438192,5.33333333 5.66666667,5.33333333 C6.21895142,5.33333333 6.66666667,5.78104858 6.66666667,6.33333333 C6.66666667,6.88561808 6.21895142,7.33333333 5.66666667,7.33333333 Z M10.3333333,7.33333333 C9.78104858,7.33333333 9.33333333,6.88561808 9.33333333,6.33333333 C9.33333333,5.78104858 9.78104858,5.33333333 10.3333333,5.33333333 C10.8856181,5.33333333 11.3333333,5.78104858 11.3333333,6.33333333 C11.3333333,6.88561808 10.8856181,7.33333333 10.3333333,7.33333333 Z M10.6666667,9.33333333 C10.6666667,9.33333333 10.6666667,9.33333333 10.6666667,9.33333333 C10.6666667,10.8060927 9.47275933,12 8,12 C6.52724067,12 5.33333333,10.8060927 5.33333333,9.33333333 C5.33333333,9.33333333 5.33333333,9.33333333 5.33333333,9.33333333 C5.33333334,8.9651435 5.63181017,8.66666667 6,8.66666667 L10.0000303,8.66666667 C10.3682034,8.666697 10.6666667,8.96516025 10.6666667,9.33333333 Z" transform="translate(65 4.989)"/>
      <rect width="20" height="5.986" x="10" y="9.977" fill="#DCE2E6" rx="2.993"/>
      <rect width="69" height="5.986" x="10" y="24.944" fill="#EDF1F2" rx="2.993"/>
      <rect width="59" height="5.986" x="10" y="34.921" fill="#EDF1F2" rx="2.993"/>
      <rect width="49" height="5.986" x="10" y="44.898" fill="#EDF1F2" rx="2.993"/>
    </g>
    <g transform="translate(105 25)">
      <path fill="#FFF" stroke="#DCE2E6" stroke-width="1.5" d="M11.7616675,-8.90232006e-16 L77.2383325,2.88634414e-15 C80.426616,-2.33739046e-15 82.2545989,0.464128056 83.8842285,1.33566352 C85.5138581,2.20719898 86.792801,3.48614185 87.6643365,5.11577148 C88.5358719,6.74540111 89,8.57338401 89,11.7616675 L89,14.1796418 C89,17.3679252 88.5358719,19.1959081 87.6643365,20.8255378 C86.792801,22.4551674 85.5138581,23.7341103 83.8842285,24.6056457 C82.2545989,25.4771812 80.426616,25.9413093 77.2383325,25.9413093 L11.7616675,25.9413093 C8.57338401,25.9413093 6.74540111,25.4771812 5.11577148,24.6056457 C3.48614185,23.7341103 2.20719898,22.4551674 1.33566352,20.8255378 C0.464128056,19.1959081 1.74710071e-16,17.3679252 -2.1574204e-16,14.1796418 L2.1574204e-16,11.7616675 C-1.74710071e-16,8.57338401 0.464128056,6.74540111 1.33566352,5.11577148 C2.20719898,3.48614185 3.48614185,2.20719898 5.11577148,1.33566352 C6.74540111,0.464128056 8.57338401,7.20918817e-16 11.7616675,-8.90232006e-16 Z"/>
      <rect width="20" height="5.986" x="10" y="9.977" fill="#DCE2E6" rx="2.993"/>
    </g>
  </g>
</svg>
