<svg xmlns="http://www.w3.org/2000/svg" viewBox="0 0 211 110" width="100%" height="100%">
  <g fill="none" fill-rule="evenodd" transform="translate(1 1)">
    <path fill="#FFF" stroke="#DCE2E6" stroke-width="1.5" d="M12.819426,-5.17920154e-16 L116.180574,5.17920154e-16 C120.638168,-3.00926524e-16 122.254599,0.464128056 123.884229,1.33566352 C125.513858,2.20719898 126.792801,3.48614185 127.664336,5.11577148 C128.535872,6.74540111 129,8.3618323 129,12.819426 L129,86.9548404 C129,91.4124341 128.535872,93.0288653 127.664336,94.6584949 C126.792801,96.2881245 125.513858,97.5670674 123.884229,98.4386028 C122.254599,99.3101383 120.638168,99.7742664 116.180574,99.7742664 L12.819426,99.7742664 C8.3618323,99.7742664 6.74540111,99.3101383 5.11577148,98.4386028 C3.48614185,97.5670674 2.20719898,96.2881245 1.33566352,94.6584949 C0.464128056,93.0288653 2.00617683e-16,91.4124341 -3.45280103e-16,86.9548404 L3.45280103e-16,12.819426 C-2.00617683e-16,8.3618323 0.464128056,6.74540111 1.33566352,5.11577148 C2.20719898,3.48614185 3.48614185,2.20719898 5.11577148,1.33566352 C6.74540111,0.464128056 8.3618323,3.00926524e-16 12.819426,-5.17920154e-16 Z"/>
    <g transform="translate(103 81.815)">
      <rect width="16" height="11.973" fill="#3DCC3D" rx="5.986"/>
      <rect width="10" height="5.986" x="3" y="2.993" fill="#FFF" rx="2.993"/>
    </g>
    <path fill="#DCE2E6" d="M8,15.3333333 C3.94991183,15.3333333 0.666666667,12.0500882 0.666666667,8 C0.666666667,3.94991183 3.94991183,0.666666667 8,0.666666667 C12.0500882,0.666666667 15.3333333,3.94991183 15.3333333,8 C15.3333333,12.0500882 12.0500882,15.3333333 8,15.3333333 Z M8,14 C11.3137085,14 14,11.3137085 14,8 C14,4.6862915 11.3137085,2 8,2 C4.6862915,2 2,4.6862915 2,8 C2,11.3137085 4.6862915,14 8,14 Z M5.66666667,7.33333333 C5.11438192,7.33333333 4.66666667,6.88561808 4.66666667,6.33333333 C4.66666667,5.78104858 5.11438192,5.33333333 5.66666667,5.33333333 C6.21895142,5.33333333 6.66666667,5.78104858 6.66666667,6.33333333 C6.66666667,6.88561808 6.21895142,7.33333333 5.66666667,7.33333333 Z M10.3333333,7.33333333 C9.78104858,7.33333333 9.33333333,6.88561808 9.33333333,6.33333333 C9.33333333,5.78104858 9.78104858,5.33333333 10.3333333,5.33333333 C10.8856181,5.33333333 11.3333333,5.78104858 11.3333333,6.33333333 C11.3333333,6.88561808 10.8856181,7.33333333 10.3333333,7.33333333 Z M10.6666667,9.33333333 C10.6666667,9.33333333 10.6666667,9.33333333 10.6666667,9.33333333 C10.6666667,10.8060927 9.47275933,12 8,12 C6.52724067,12 5.33333333,10.8060927 5.33333333,9.33333333 C5.33333333,9.33333333 5.33333333,9.33333333 5.33333333,9.33333333 C5.33333334,8.9651435 5.63181017,8.66666667 6,8.66666667 L10.0000303,8.66666667 C10.3682034,8.666697 10.6666667,8.96516025 10.6666667,9.33333333 Z" transform="translate(105 5.172)"/>
    <rect width="60" height="5.986" x="10" y="9.977" fill="#DCE2E6" rx="2.993"/>
    <rect width="109" height="49.887" x="10" y="24.944" fill="#DCE2E6" rx="5"/>
    <path fill="#FFF" d="M3.53026676,18.3480916 C3.66395337,18.4961488 3.8225743,18.619214 4.0063303,18.7174877 C4.39725995,18.9265592 4.77756757,19 5.8458278,19 L7.46078644,19 L8.77328644,17.6875 L6.5,15.4142136 L3.70710678,18.2071068 C3.65246697,18.2617466 3.59307724,18.3087415 3.53026676,18.3480916 Z M3,16.0857864 L5.79289322,13.2928932 C6.18341751,12.9023689 6.81658249,12.9023689 7.20710678,13.2928932 L10.1875,16.2732864 L15.1678932,11.2928932 C15.5584175,10.9023689 16.1915825,10.9023689 16.5821068,11.2928932 L21,15.7107864 L21,7.8458278 C21,6.77756757 20.9265592,6.39725995 20.7174877,6.0063303 C20.5492269,5.69170989 20.3082901,5.45077309 19.9936697,5.28251225 C19.60274,5.07344079 19.2224324,5 18.1541722,5 L5.8458278,5 C4.77756757,5 4.39725995,5.07344079 4.0063303,5.28251225 C3.69170989,5.45077309 3.45077309,5.69170989 3.28251225,6.0063303 C3.07344079,6.39725995 3,6.77756757 3,7.8458278 L3,16.0857864 Z M10.2892136,19 L18.1541722,19 C19.2224324,19 19.60274,18.9265592 19.9936697,18.7174877 C20.2511452,18.5797884 20.4592727,18.3934159 20.6186046,18.1578182 L15.875,13.4142136 L10.2892136,19 Z M5.8458278,3 L18.1541722,3 C19.5243618,3 20.2165846,3.13367437 20.9368674,3.51888586 C21.6000248,3.8735463 22.1264537,4.39997522 22.4811141,5.06313259 C22.8663256,5.78341544 23,6.47563815 23,7.8458278 L23,16.1541722 C23,17.5243618 22.8663256,18.2165846 22.4811141,18.9368674 C22.1264537,19.6000248 21.6000248,20.1264537 20.9368674,20.4811141 C20.2165846,20.8663256 19.5243618,21 18.1541722,21 L5.8458278,21 C4.47563815,21 3.78341544,20.8663256 3.06313259,20.4811141 C2.39997522,20.1264537 1.8735463,19.6000248 1.51888586,18.9368674 C1.13367437,18.2165846 1,17.5243618 1,16.1541722 L1,7.8458278 C1,6.47563815 1.13367437,5.78341544 1.51888586,5.06313259 C1.8735463,4.39997522 2.39997522,3.8735463 3.06313259,3.51888586 C3.78341544,3.13367437 4.47563815,3 5.8458278,3 Z M8.5,11.4289322 C7.11928813,11.4289322 6,10.3096441 6,8.92893219 C6,7.54822031 7.11928813,6.42893219 8.5,6.42893219 C9.88071187,6.42893219 11,7.54822031 11,8.92893219 C11,10.3096441 9.88071187,11.4289322 8.5,11.4289322 Z" transform="translate(52 37.914)"/>
    <rect width="10" height="5.986" x="10" y="84.808" fill="#DCE2E6" rx="2.993"/>
    <g transform="translate(80 32)">
      <path fill="#FFF" stroke="#DCE2E6" stroke-width="1.5" d="M12.819426,-2.33158843e-15 L116.180574,-3.88913985e-16 C120.638168,2.25970225e-16 122.254599,0.464128056 123.884229,1.33566352 C125.513858,2.20719898 126.792801,3.48614185 127.664336,5.11577148 C128.535872,6.74540111 129,8.3618323 129,12.819426 L129,63.0090164 C129,67.4666101 128.535872,69.0830413 127.664336,70.712671 C126.792801,72.3423006 125.513858,73.6212435 123.884229,74.4927789 C122.254599,75.3643144 120.638168,75.8284424 116.180574,75.8284424 L12.819426,75.8284424 C8.3618323,75.8284424 6.74540111,75.3643144 5.11577148,74.4927789 C3.48614185,73.6212435 2.20719898,72.3423006 1.33566352,70.712671 C0.464128056,69.0830413 2.00617683e-16,67.4666101 -3.45280103e-16,63.0090164 L3.45280103e-16,12.819426 C-2.00617683e-16,8.3618323 0.464128056,6.74540111 1.33566352,5.11577148 C2.20719898,3.48614185 3.48614185,2.20719898 5.11577148,1.33566352 C6.74540111,0.464128056 8.3618323,1.35472002e-15 12.819426,-2.33158843e-15 Z"/>
      <g transform="translate(103 57.87)">
        <rect width="16" height="11.973" fill="#FFD426" rx="5.986"/>
        <rect width="10" height="5.986" x="3" y="2.993" fill="#FFF" rx="2.993"/>
      </g>
      <path fill="#DCE2E6" d="M8,15.3333333 C3.94991183,15.3333333 0.666666667,12.0500882 0.666666667,8 C0.666666667,3.94991183 3.94991183,0.666666667 8,0.666666667 C12.0500882,0.666666667 15.3333333,3.94991183 15.3333333,8 C15.3333333,12.0500882 12.0500882,15.3333333 8,15.3333333 Z M8,14 C11.3137085,14 14,11.3137085 14,8 C14,4.6862915 11.3137085,2 8,2 C4.6862915,2 2,4.6862915 2,8 C2,11.3137085 4.6862915,14 8,14 Z M5.66666667,7.33333333 C5.11438192,7.33333333 4.66666667,6.88561808 4.66666667,6.33333333 C4.66666667,5.78104858 5.11438192,5.33333333 5.66666667,5.33333333 C6.21895142,5.33333333 6.66666667,5.78104858 6.66666667,6.33333333 C6.66666667,6.88561808 6.21895142,7.33333333 5.66666667,7.33333333 Z M10.3333333,7.33333333 C9.78104858,7.33333333 9.33333333,6.88561808 9.33333333,6.33333333 C9.33333333,5.78104858 9.78104858,5.33333333 10.3333333,5.33333333 C10.8856181,5.33333333 11.3333333,5.78104858 11.3333333,6.33333333 C11.3333333,6.88561808 10.8856181,7.33333333 10.3333333,7.33333333 Z M10.6666667,9.33333333 C10.6666667,9.33333333 10.6666667,9.33333333 10.6666667,9.33333333 C10.6666667,10.8060927 9.47275933,12 8,12 C6.52724067,12 5.33333333,10.8060927 5.33333333,9.33333333 C5.33333333,9.33333333 5.33333333,9.33333333 5.33333333,9.33333333 C5.33333334,8.9651435 5.63181017,8.66666667 6,8.66666667 L10.0000303,8.66666667 C10.3682034,8.666697 10.6666667,8.96516025 10.6666667,9.33333333 Z" transform="translate(105 4.989)"/>
      <rect width="60" height="5.986" x="10" y="9.977" fill="#DCE2E6" rx="2.993"/>
      <rect width="109" height="5.986" x="10" y="24.944" fill="#EDF1F2" rx="2.993"/>
      <rect width="99" height="5.986" x="10" y="34.921" fill="#EDF1F2" rx="2.993"/>
      <rect width="89" height="5.986" x="10" y="44.898" fill="#EDF1F2" rx="2.993"/>
      <rect width="10" height="5.986" x="10" y="59.865" fill="#DCE2E6" rx="2.993"/>
    </g>
  </g>
</svg>
