<svg xmlns="http://www.w3.org/2000/svg" viewBox="0 0 129 89" width="100%" height="100%">
  <g fill="none" fill-rule="evenodd" transform="translate(-1 -1)">
    <rect width="96" height="12" x="34" y="6" fill="#DCE2E6" rx="6"/>
    <path fill="#0AF" d="M12,23 C5.92486775,23 1,18.0751322 1,12 C1,5.92486775 5.92486775,1 12,1 C18.0751322,1 23,5.92486775 23,12 C23,18.0751322 18.0751322,23 12,23 Z M8.38388348,12.0129816 C7.89572811,11.5248262 7.10427189,11.5248262 6.61611652,12.0129816 C6.12796116,12.5011369 6.12796116,13.2925931 6.61611652,13.7807485 L10.0552418,17.2198738 L17.3912322,9.88388348 C17.8793875,9.39572811 17.8793875,8.60427189 17.3912322,8.11611652 C16.9030768,7.62796116 16.1116206,7.62796116 15.6234652,8.11611652 L10.0552418,13.6843399 L8.38388348,12.0129816 Z"/>
    <rect width="96" height="12" x="34" y="38" fill="#EDF1F2" rx="6"/>
    <path fill="#DCE2E6" d="M12,23 C18.0751322,23 23,18.0751322 23,12 C23,5.92486775 18.0751322,1 12,1 C5.92486775,1 1,5.92486775 1,12 C1,18.0751322 5.92486775,23 12,23 Z M12,21.5 C6.75329488,21.5 2.5,17.2467051 2.5,12 C2.5,6.75329488 6.75329488,2.5 12,2.5 C17.2467051,2.5 21.5,6.75329488 21.5,12 C21.5,17.2467051 17.2467051,21.5 12,21.5 Z" transform="translate(0 33)"/>
    <rect width="36" height="12" x="34" y="73" fill="#EDF1F2" rx="6"/>
    <path fill="#DCE2E6" d="M12,23 C18.0751322,23 23,18.0751322 23,12 C23,5.92486775 18.0751322,1 12,1 C5.92486775,1 1,5.92486775 1,12 C1,18.0751322 5.92486775,23 12,23 Z M12,21.5 C6.75329488,21.5 2.5,17.2467051 2.5,12 C2.5,6.75329488 6.75329488,2.5 12,2.5 C17.2467051,2.5 21.5,6.75329488 21.5,12 C21.5,17.2467051 17.2467051,21.5 12,21.5 Z" transform="translate(0 67)"/>
  </g>
</svg>
